<?xml version="1.0" encoding="UTF-8"?>
<!DOCTYPE svg PUBLIC "-//W3C//DTD SVG 1.1//EN" "http://www.w3.org/Graphics/SVG/1.1/DTD/svg11.dtd">
<svg xmlns="http://www.w3.org/2000/svg" version="1.1" width="200px" height="200px" style="shape-rendering:geometricPrecision; text-rendering:geometricPrecision; image-rendering:optimizeQuality; fill-rule:evenodd; clip-rule:evenodd" xmlns:xlink="http://www.w3.org/1999/xlink">
<g><path style="opacity:0.998" fill="#222222" d="M 8.5,-0.5 C 69.1667,-0.5 129.833,-0.5 190.5,-0.5C 191.987,0.803551 193.654,1.97022 195.5,3C 196.697,5.01533 198.03,6.84866 199.5,8.5C 199.5,69.1667 199.5,129.833 199.5,190.5C 198.196,191.987 197.03,193.654 196,195.5C 193.985,196.697 192.151,198.03 190.5,199.5C 129.833,199.5 69.1667,199.5 8.5,199.5C 7.01307,198.196 5.3464,197.03 3.5,196C 2.30342,193.985 0.970083,192.151 -0.5,190.5C -0.5,129.833 -0.5,69.1667 -0.5,8.5C 0.803551,7.01307 1.97022,5.3464 3,3.5C 5.01533,2.30342 6.84866,0.970083 8.5,-0.5 Z"/></g>
<g><path style="opacity:1" fill="#9045fe" d="M 15.5,9.5 C 72.2502,9.00822 128.917,9.50822 185.5,11C 187.049,12.214 188.215,13.714 189,15.5C 189.5,56.832 189.667,98.1653 189.5,139.5C 129.5,139.5 69.5,139.5 9.5,139.5C 9.33334,98.1653 9.50001,56.832 10,15.5C 11.3597,12.9774 13.193,10.9774 15.5,9.5 Z"/></g>
<g><path style="opacity:1" fill="#050406" d="M 72.5,130.5 C 71.8333,124.167 71.1667,117.833 70.5,111.5C 61.1667,111.5 51.8333,111.5 42.5,111.5C 42.3334,86.8311 42.5,62.1644 43,37.5C 50.4614,31.7074 57.6281,25.5407 64.5,19C 95.4125,17.5152 126.412,17.0152 157.5,17.5C 157.667,36.5029 157.5,55.5029 157,74.5C 142.833,86.6667 128.667,98.8333 114.5,111C 107.833,111.333 101.167,111.667 94.5,112C 87.0009,118.002 79.6675,124.168 72.5,130.5 Z"/></g>
<g><path style="opacity:1" fill="#d5d5d5" d="M 71.5,26.5 C 96.6612,25.5023 121.995,25.1689 147.5,25.5C 147.83,41.0091 147.496,56.3424 146.5,71.5C 146.5,56.5 146.5,41.5 146.5,26.5C 121.5,26.5 96.5,26.5 71.5,26.5 Z"/></g>
<g><path style="opacity:1" fill="#fdfdfd" d="M 71.5,26.5 C 96.5,26.5 121.5,26.5 146.5,26.5C 146.5,41.5 146.5,56.5 146.5,71.5C 140.706,76.1232 135.039,80.9565 129.5,86C 122.833,86.3333 116.167,86.6667 109.5,87C 104.313,91.6878 98.9799,96.1878 93.5,100.5C 92.5067,95.8804 92.1734,91.2137 92.5,86.5C 85.5,86.5 78.5,86.5 71.5,86.5C 71.5,66.5 71.5,46.5 71.5,26.5 Z"/></g>
<g><path style="opacity:1" fill="#010101" d="M 97.5,40.5 C 100.5,40.5 103.5,40.5 106.5,40.5C 106.5,48.5 106.5,56.5 106.5,64.5C 103.5,64.5 100.5,64.5 97.5,64.5C 97.5,56.5 97.5,48.5 97.5,40.5 Z"/></g>
<g><path style="opacity:1" fill="#575757" d="M 132.5,64.5 C 132.5,56.5 132.5,48.5 132.5,40.5C 129.833,40.5 127.167,40.5 124.5,40.5C 124.5,48.5 124.5,56.5 124.5,64.5C 123.507,56.3501 123.174,48.0168 123.5,39.5C 126.833,39.5 130.167,39.5 133.5,39.5C 133.826,48.0168 133.493,56.3501 132.5,64.5 Z"/></g>
<g><path style="opacity:1" fill="#010101" d="M 132.5,64.5 C 129.833,64.5 127.167,64.5 124.5,64.5C 124.5,56.5 124.5,48.5 124.5,40.5C 127.167,40.5 129.833,40.5 132.5,40.5C 132.5,48.5 132.5,56.5 132.5,64.5 Z"/></g>
<g><path style="opacity:1" fill="#5e2da6" d="M 70.5,111.5 C 71.1667,117.833 71.8333,124.167 72.5,130.5C 72.44,131.043 72.1067,131.376 71.5,131.5C 70.5033,124.866 70.17,118.2 70.5,111.5 Z"/></g>
<g><path style="opacity:1" fill="#ededed" d="M 54.5,159.5 C 60.1667,159.5 65.8333,159.5 71.5,159.5C 71.5,161.167 71.5,162.833 71.5,164.5C 69.8333,164.5 68.1667,164.5 66.5,164.5C 66.9422,168.154 67.2756,171.821 67.5,175.5C 65.1667,175.5 62.8333,175.5 60.5,175.5C 60.5,172.5 60.5,169.5 60.5,166.5C 58.5,166.5 56.5,166.5 54.5,166.5C 54.5,164.167 54.5,161.833 54.5,159.5 Z"/></g>
<g><path style="opacity:1" fill="#f2f2f2" d="M 92.5,164.5 C 91.8333,164.5 91.1667,164.5 90.5,164.5C 90.5,162.833 90.5,161.167 90.5,159.5C 92.5,159.5 94.5,159.5 96.5,159.5C 96.5,161.167 96.5,162.833 96.5,164.5C 95.1667,164.5 93.8333,164.5 92.5,164.5 Z"/></g>
<g><path style="opacity:1" fill="#f2f2f2" d="M 125.5,159.5 C 127.833,159.5 130.167,159.5 132.5,159.5C 131.865,163.462 133.198,164.795 136.5,163.5C 138.029,163.529 139.196,164.196 140,165.5C 140.498,168.817 140.665,172.15 140.5,175.5C 138.833,175.5 137.167,175.5 135.5,175.5C 134.833,166.167 134.167,166.167 133.5,175.5C 131.712,175.785 130.045,175.452 128.5,174.5C 127.372,169.526 126.372,164.526 125.5,159.5 Z"/></g>
<g><path style="opacity:1" fill="#f4f4f4" d="M 101.5,159.5 C 103.696,159.565 105.696,160.232 107.5,161.5C 106.128,163.62 106.795,164.62 109.5,164.5C 109.5,165.833 109.5,167.167 109.5,168.5C 108.5,168.5 107.5,168.5 106.5,168.5C 106.5,170.833 106.5,173.167 106.5,175.5C 104.5,175.5 102.5,175.5 100.5,175.5C 100.993,173.194 101.326,170.861 101.5,168.5C 100.5,168.5 99.5,168.5 98.5,168.5C 98.5,166.833 98.5,165.167 98.5,163.5C 99.5,163.5 100.5,163.5 101.5,163.5C 101.5,162.167 101.5,160.833 101.5,159.5 Z"/></g>
<g><path style="opacity:1" fill="#ededed" d="M 89.5,164.5 C 88.7659,165.708 88.4326,167.041 88.5,168.5C 88.3259,170.861 87.9926,173.194 87.5,175.5C 85.2776,175.822 83.4443,175.155 82,173.5C 80.742,176.055 78.9086,176.722 76.5,175.5C 75.1667,172.167 73.8333,168.833 72.5,165.5C 76.521,162.423 79.021,163.423 80,168.5C 81,167.167 82,167.167 83,168.5C 83.4935,166.866 83.6602,165.199 83.5,163.5C 85.7354,163.205 87.7354,163.539 89.5,164.5 Z"/></g>
<g><path style="opacity:1" fill="#f1f1f1" d="M 116.5,162.5 C 118.96,162.699 121.293,163.365 123.5,164.5C 122.938,167.773 121.271,168.773 118.5,167.5C 115.81,169.348 115.977,171.015 119,172.5C 120,171.5 121,170.5 122,169.5C 126.497,172.78 125.83,175.114 120,176.5C 117.865,175.873 115.698,175.373 113.5,175C 111.658,172.304 111.325,169.471 112.5,166.5C 114.188,165.479 115.521,164.145 116.5,162.5 Z"/></g>
<g><path style="opacity:1" fill="#737373" d="M 89.5,164.5 C 89.8333,164.5 90.1667,164.5 90.5,164.5C 91.1667,164.5 91.8333,164.5 92.5,164.5C 92.5,164.833 92.5,165.167 92.5,165.5C 90.5977,168.337 89.931,171.671 90.5,175.5C 89.8333,173.167 89.1667,170.833 88.5,168.5C 88.4326,167.041 88.7659,165.708 89.5,164.5 Z"/></g>
<g><path style="opacity:1" fill="#f8f8f8" d="M 92.5,165.5 C 93.5,165.5 94.5,165.5 95.5,165.5C 95.5,168.833 95.5,172.167 95.5,175.5C 93.8333,175.5 92.1667,175.5 90.5,175.5C 89.931,171.671 90.5977,168.337 92.5,165.5 Z"/></g>
</svg>
