<?xml version="1.0" encoding="UTF-8"?>
<!DOCTYPE svg PUBLIC "-//W3C//DTD SVG 1.1//EN" "http://www.w3.org/Graphics/SVG/1.1/DTD/svg11.dtd">
<svg xmlns="http://www.w3.org/2000/svg" version="1.1" width="200px" height="200px" style="shape-rendering:geometricPrecision; text-rendering:geometricPrecision; image-rendering:optimizeQuality; fill-rule:evenodd; clip-rule:evenodd" xmlns:xlink="http://www.w3.org/1999/xlink">
<g><path style="opacity:0.998" fill="#222222" d="M 8.5,-0.5 C 69.1667,-0.5 129.833,-0.5 190.5,-0.5C 191.987,0.803551 193.654,1.97022 195.5,3C 196.697,5.01533 198.03,6.84866 199.5,8.5C 199.5,69.1667 199.5,129.833 199.5,190.5C 198.196,191.987 197.03,193.654 196,195.5C 193.985,196.697 192.151,198.03 190.5,199.5C 129.833,199.5 69.1667,199.5 8.5,199.5C 7.01307,198.196 5.3464,197.03 3.5,196C 2.30342,193.985 0.970083,192.151 -0.5,190.5C -0.5,129.833 -0.5,69.1667 -0.5,8.5C 0.803551,7.01307 1.97022,5.3464 3,3.5C 5.01533,2.30342 6.84866,0.970083 8.5,-0.5 Z"/></g>
<g><path style="opacity:1" fill="#ea95f5" d="M 10.5,113.5 C 9.33589,81.0026 9.16922,48.3359 10,15.5C 10.7845,13.714 11.9512,12.214 13.5,11C 70.0841,9.34177 126.751,9.00843 183.5,10C 185.286,10.7845 186.786,11.9512 188,13.5C 189.652,46.7481 189.986,80.0814 189,113.5C 178.705,105.929 168.872,97.7627 159.5,89C 155.76,89.3765 152.093,90.0432 148.5,91C 139.636,82.4702 131.136,73.6369 123,64.5C 115.941,69.8909 108.607,74.8909 101,79.5C 99.3006,76.1147 96.8006,73.948 93.5,73C 80.4217,82.6225 67.255,92.1225 54,101.5C 50.6999,99.6976 47.5332,97.6976 44.5,95.5C 37.7273,99.2206 30.7273,102.387 23.5,105C 18.7596,107.36 14.4263,110.193 10.5,113.5 Z"/></g>
<g><path style="opacity:1" fill="#ea95f5" d="M 10.5,113.5 C 21.0217,109.994 31.5217,106.327 42,102.5C 45.6358,105.299 49.1358,108.299 52.5,111.5C 57.5,106.833 62.5,102.167 67.5,97.5C 69.5,99.1667 71.5,100.833 73.5,102.5C 80.8498,95.6425 87.3498,87.9758 93,79.5C 96.1027,83.3962 98.9361,87.3962 101.5,91.5C 107.806,84.5271 114.473,77.8604 121.5,71.5C 130.179,81.0148 138.513,90.8481 146.5,101C 150.429,99.2677 153.762,96.4344 156.5,92.5C 162.122,98.6588 167.789,104.825 173.5,111C 178.552,112.346 183.552,113.846 188.5,115.5C 189.498,123.472 189.831,131.472 189.5,139.5C 129.5,139.5 69.5,139.5 9.5,139.5C 9.19679,130.749 9.53013,122.082 10.5,113.5 Z"/></g>
<g><path style="opacity:1" fill="#ededed" d="M 81.5,161.5 C 80.1779,161.67 79.0113,161.337 78,160.5C 77.2828,161.044 76.7828,161.711 76.5,162.5C 73.4215,161.336 73.0882,159.836 75.5,158C 78.8469,156.794 81.1803,157.794 82.5,161C 82.2716,161.399 81.9382,161.565 81.5,161.5 Z"/></g>
<g><path style="opacity:1" fill="#878787" d="M 51.5,160.5 C 50.1667,160.5 48.8333,160.5 47.5,160.5C 47.7373,161.791 47.404,162.791 46.5,163.5C 46.5,162.167 46.5,160.833 46.5,159.5C 48.4147,159.216 50.0813,159.549 51.5,160.5 Z"/></g>
<g><path style="opacity:1" fill="#f4f4f4" d="M 129.5,159.5 C 133.739,158.789 136.406,160.456 137.5,164.5C 139.861,163.224 142.028,163.558 144,165.5C 144.172,168.826 144.005,172.159 143.5,175.5C 141.833,175.5 140.167,175.5 138.5,175.5C 137.833,166.167 137.167,166.167 136.5,175.5C 134.833,175.5 133.167,175.5 131.5,175.5C 130.833,170.167 130.167,164.833 129.5,159.5 Z"/></g>
<g><path style="opacity:1" fill="#f7f7f7" d="M 179.5,159.5 C 181.414,160.185 183.414,160.685 185.5,161C 184.663,162.011 184.33,163.178 184.5,164.5C 185.5,164.5 186.5,164.5 187.5,164.5C 187.5,165.833 187.5,167.167 187.5,168.5C 186.5,168.5 185.5,168.5 184.5,168.5C 184.5,170.833 184.5,173.167 184.5,175.5C 182.5,175.5 180.5,175.5 178.5,175.5C 179.092,172.873 179.425,170.206 179.5,167.5C 178.5,167.5 177.5,167.5 176.5,167.5C 176.5,166.167 176.5,164.833 176.5,163.5C 177.5,163.5 178.5,163.5 179.5,163.5C 179.5,162.167 179.5,160.833 179.5,159.5 Z"/></g>
<g><path style="opacity:1" fill="#efefef" d="M 14.5,160.5 C 18.81,161.08 23.1434,161.414 27.5,161.5C 27.7093,163.714 26.876,165.381 25,166.5C 23.5349,165.67 22.0349,165.504 20.5,166C 21.5634,167.188 22.8967,167.688 24.5,167.5C 24.5,168.5 24.5,169.5 24.5,170.5C 22.8008,170.34 21.1341,170.506 19.5,171C 21.8098,171.497 24.1432,171.663 26.5,171.5C 26.5,172.833 26.5,174.167 26.5,175.5C 22.5,175.5 18.5,175.5 14.5,175.5C 13.4255,170.52 13.4255,165.52 14.5,160.5 Z"/></g>
<g><path style="opacity:1" fill="#7b7b7b" d="M 81.5,161.5 C 80.5,162.167 79.5,162.833 78.5,163.5C 77.8333,163.5 77.1667,163.5 76.5,163.5C 76.5,163.167 76.5,162.833 76.5,162.5C 76.7828,161.711 77.2828,161.044 78,160.5C 79.0113,161.337 80.1779,161.67 81.5,161.5 Z"/></g>
<g><path style="opacity:1" fill="#f0f0f0" d="M 36.5,162.5 C 40.7266,163.676 41.3933,165.842 38.5,169C 42.5998,173.22 41.7664,175.053 36,174.5C 33.4383,176.706 30.9383,176.372 28.5,173.5C 29.3128,172.186 30.3128,171.019 31.5,170C 26.2891,167.763 26.2891,165.596 31.5,163.5C 33.9613,166.423 35.6279,166.089 36.5,162.5 Z"/></g>
<g><path style="opacity:1" fill="#f2f2f2" d="M 51.5,160.5 C 52.4345,161.568 52.7678,162.901 52.5,164.5C 56.0816,163.734 59.5816,163.734 63,164.5C 64.6667,161.833 66.3333,161.833 68,164.5C 68.5946,165.899 68.4279,167.232 67.5,168.5C 66.0333,168.723 64.5333,169.056 63,169.5C 62.5045,171.473 62.3379,173.473 62.5,175.5C 60.8333,175.5 59.1667,175.5 57.5,175.5C 57.4533,172.432 56.9533,169.432 56,166.5C 54.951,168.107 53.451,168.773 51.5,168.5C 51.5,170.833 51.5,173.167 51.5,175.5C 49.8333,175.5 48.1667,175.5 46.5,175.5C 46.5,173.167 46.5,170.833 46.5,168.5C 45.5,168.5 44.5,168.5 43.5,168.5C 43.5,166.833 43.5,165.167 43.5,163.5C 44.5,163.5 45.5,163.5 46.5,163.5C 47.404,162.791 47.7373,161.791 47.5,160.5C 48.8333,160.5 50.1667,160.5 51.5,160.5 Z"/></g>
<g><path style="opacity:1" fill="#ebebeb" d="M 76.5,163.5 C 77.1667,163.5 77.8333,163.5 78.5,163.5C 80.258,163.877 81.9246,164.544 83.5,165.5C 86.1667,162.833 88.8333,162.833 91.5,165.5C 92.5,164.833 93.5,164.167 94.5,163.5C 97.9866,162.867 101.32,163.533 104.5,165.5C 104.5,168.167 104.5,170.833 104.5,173.5C 103.448,175.256 101.781,175.923 99.5,175.5C 99.1667,166.167 98.8333,166.167 98.5,175.5C 96.8333,175.5 95.1667,175.5 93.5,175.5C 93.7989,173.396 93.4656,171.396 92.5,169.5C 92.0798,171.326 92.0798,173.326 92.5,175.5C 90.54,176.138 88.7067,176.138 87,175.5C 86.7586,172.711 86.092,170.044 85,167.5C 84.8898,169.848 83.7231,171.348 81.5,172C 82.3567,172.689 83.0233,173.522 83.5,174.5C 74.3586,178.179 70.1919,175.179 71,165.5C 72.7255,164.536 74.5588,163.869 76.5,163.5 Z"/></g>
<g><path style="opacity:1" fill="#ececec" d="M 106.5,173.5 C 106.5,171.833 106.5,170.167 106.5,168.5C 106.5,167.167 106.5,165.833 106.5,164.5C 108.787,164.276 110.953,163.609 113,162.5C 116.21,163.497 118.376,165.497 119.5,168.5C 119.21,170.044 118.544,171.377 117.5,172.5C 119.027,174.33 118.527,175.33 116,175.5C 114.634,175.706 113.301,176.04 112,176.5C 110.235,175.368 108.402,174.368 106.5,173.5 Z"/></g>
<g><path style="opacity:1" fill="#ececec" d="M 147.5,163.5 C 152.14,162.736 156.14,163.903 159.5,167C 157.109,169.733 157.109,172.4 159.5,175C 155.137,175.369 150.804,175.869 146.5,176.5C 146.567,174.599 146.233,172.766 145.5,171C 146.444,169.523 147.777,168.523 149.5,168C 148.552,167.517 147.552,167.351 146.5,167.5C 146.433,166.041 146.766,164.708 147.5,163.5 Z"/></g>
<g><path style="opacity:1" fill="#f6f6f6" d="M 160.5,163.5 C 162.5,163.5 164.5,163.5 166.5,163.5C 166.051,166.29 166.051,168.956 166.5,171.5C 168.283,169.977 168.949,167.977 168.5,165.5C 170.696,165.565 172.696,166.232 174.5,167.5C 173.607,170.084 173.274,172.751 173.5,175.5C 162.678,178.342 158.345,174.342 160.5,163.5 Z"/></g>
<g><path style="opacity:1" fill="#343434" d="M 76.5,166.5 C 78.9828,166.73 79.4828,167.397 78,168.5C 76.9701,168.164 76.4701,167.497 76.5,166.5 Z"/></g>
<g><path style="opacity:1" fill="#303030" d="M 112.5,166.5 C 115.137,168.154 114.803,168.654 111.5,168C 112.056,167.617 112.389,167.117 112.5,166.5 Z"/></g>
<g><path style="opacity:1" fill="#767676" d="M 104.5,165.5 C 105.167,166.5 105.833,167.5 106.5,168.5C 106.5,170.167 106.5,171.833 106.5,173.5C 105.833,173.5 105.167,173.5 104.5,173.5C 104.5,170.833 104.5,168.167 104.5,165.5 Z"/></g>
<g><path style="opacity:1" fill="#6a6a6a" d="M 150.5,171.5 C 152.337,171.639 152.67,172.306 151.5,173.5C 150.702,173.043 150.369,172.376 150.5,171.5 Z"/></g>
</svg>
