<?xml version="1.0" encoding="UTF-8"?>
<!DOCTYPE svg PUBLIC "-//W3C//DTD SVG 1.1//EN" "http://www.w3.org/Graphics/SVG/1.1/DTD/svg11.dtd">
<svg xmlns="http://www.w3.org/2000/svg" version="1.1" width="200px" height="200px" style="shape-rendering:geometricPrecision; text-rendering:geometricPrecision; image-rendering:optimizeQuality; fill-rule:evenodd; clip-rule:evenodd" xmlns:xlink="http://www.w3.org/1999/xlink">
<g><path style="opacity:0.998" fill="#222222" d="M 8.5,-0.5 C 69.1667,-0.5 129.833,-0.5 190.5,-0.5C 191.987,0.803551 193.654,1.97022 195.5,3C 196.697,5.01533 198.03,6.84866 199.5,8.5C 199.5,69.1667 199.5,129.833 199.5,190.5C 198.196,191.987 197.03,193.654 196,195.5C 193.985,196.697 192.151,198.03 190.5,199.5C 129.833,199.5 69.1667,199.5 8.5,199.5C 7.01307,198.196 5.3464,197.03 3.5,196C 2.30342,193.985 0.970083,192.151 -0.5,190.5C -0.5,129.833 -0.5,69.1667 -0.5,8.5C 0.803551,7.01307 1.97022,5.3464 3,3.5C 5.01533,2.30342 6.84866,0.970083 8.5,-0.5 Z"/></g>
<g><path style="opacity:1" fill="#4b5c79" d="M 15.5,9.5 C 72.2502,9.00822 128.917,9.50822 185.5,11C 187.049,12.214 188.215,13.714 189,15.5C 189.5,56.832 189.667,98.1653 189.5,139.5C 129.579,138.902 69.579,138.902 9.5,139.5C 9.33334,98.1653 9.50001,56.832 10,15.5C 11.3597,12.9774 13.193,10.9774 15.5,9.5 Z"/></g>
<g><path style="opacity:1" fill="#c7c5cb" d="M 42.5,20.5 C 41.4099,25.4146 43.0766,27.0813 47.5,25.5C 48.2623,27.2624 49.5956,28.2624 51.5,28.5C 51.5631,32.255 53.2298,33.5884 56.5,32.5C 75.6363,40.1274 94.9696,40.4607 114.5,33.5C 115.416,33.5427 116.083,33.8761 116.5,34.5C 115.624,34.3691 114.957,34.7025 114.5,35.5C 115.544,37.7676 115.711,40.1009 115,42.5C 114.71,40.0481 114.044,37.7148 113,35.5C 103.075,40.4402 92.5752,43.4402 81.5,44.5C 69.9451,44.9875 58.9451,42.4875 48.5,37C 43.0629,33.0671 39.3963,27.9004 37.5,21.5C 37.3379,19.4727 37.5045,17.4727 38,15.5C 38.9959,17.6605 40.4959,19.3272 42.5,20.5 Z"/></g>
<g><path style="opacity:1" fill="#292d39" d="M 47.5,25.5 C 43.0766,27.0813 41.4099,25.4146 42.5,20.5C 46.9183,18.9134 48.585,20.58 47.5,25.5 Z"/></g>
<g><path style="opacity:1" fill="#576682" d="M 102.5,20.5 C 101.699,22.0418 101.366,23.7085 101.5,25.5C 105.155,26.3519 108.821,26.8519 112.5,27C 115.938,25.5551 116.271,23.7217 113.5,21.5C 112.697,20.5768 112.53,19.5768 113,18.5C 115.398,18.9582 117.064,20.2915 118,22.5C 118.483,21.552 118.649,20.552 118.5,19.5C 132.381,23.2187 140.548,32.2187 143,46.5C 143.333,51.5 143.667,56.5 144,61.5C 144.49,60.2068 144.657,58.8734 144.5,57.5C 148.846,57.3343 153.179,57.501 157.5,58C 159.649,59.152 161.482,60.652 163,62.5C 163.333,61.8333 163.667,61.1667 164,60.5C 164.689,61.3567 165.522,62.0233 166.5,62.5C 167.915,68.9176 167.749,75.2509 166,81.5C 164.951,82.5171 163.784,82.6838 162.5,82C 157.317,76.4755 151.317,72.1422 144.5,69C 143.736,66.9307 143.236,64.764 143,62.5C 142.299,65.3272 141.299,67.9938 140,70.5C 138.6,69.252 137.1,68.252 135.5,67.5C 131.421,65.0887 130.421,61.7554 132.5,57.5C 132.752,48.7928 130.585,40.7928 126,33.5C 124.989,34.3366 123.822,34.67 122.5,34.5C 120.5,34.5 118.5,34.5 116.5,34.5C 116.083,33.8761 115.416,33.5427 114.5,33.5C 94.9696,40.4607 75.6363,40.1274 56.5,32.5C 56.7394,30.5328 56.4061,28.6995 55.5,27C 53.6476,26.2274 52.3143,26.7274 51.5,28.5C 49.5956,28.2624 48.2623,27.2624 47.5,25.5C 48.585,20.58 46.9183,18.9134 42.5,20.5C 40.4959,19.3272 38.9959,17.6605 38,15.5C 37.5045,17.4727 37.3379,19.4727 37.5,21.5C 36.2031,19.3066 36.2031,16.9732 37.5,14.5C 40.0488,12.8172 42.8821,11.8172 46,11.5C 50.5698,12.768 55.0698,14.268 59.5,16C 60.0353,18.1087 61.0353,18.6087 62.5,17.5C 74.5539,22.114 86.8873,22.7807 99.5,19.5C 100.726,19.5195 101.726,19.8529 102.5,20.5 Z"/></g>
<g><path style="opacity:1" fill="#c5a850" d="M 113.5,21.5 C 116.271,23.7217 115.938,25.5551 112.5,27C 108.821,26.8519 105.155,26.3519 101.5,25.5C 101.366,23.7085 101.699,22.0418 102.5,20.5C 105.537,18.7349 107.87,19.4015 109.5,22.5C 110.736,21.7542 112.07,21.4208 113.5,21.5 Z"/></g>
<g><path style="opacity:1" fill="#1f170a" d="M 105.5,21.5 C 107.973,21.9473 108.14,22.9473 106,24.5C 105.517,23.552 105.351,22.552 105.5,21.5 Z"/></g>
<g><path style="opacity:1" fill="#1b1508" d="M 110.5,23.5 C 112.337,23.6395 112.67,24.3061 111.5,25.5C 110.702,25.0431 110.369,24.3764 110.5,23.5 Z"/></g>
<g><path style="opacity:1" fill="#242a36" d="M 56.5,32.5 C 53.2298,33.5884 51.5631,32.255 51.5,28.5C 52.3143,26.7274 53.6476,26.2274 55.5,27C 56.4061,28.6995 56.7394,30.5328 56.5,32.5 Z"/></g>
<g><path style="opacity:1" fill="#cdc9cf" d="M 135.5,67.5 C 141.99,77.138 148.49,86.8047 155,96.5C 166.073,95.0071 166.24,96.8405 155.5,102C 156.308,102.308 156.975,102.808 157.5,103.5C 156.879,106.564 156.045,109.564 155,112.5C 154.163,114.007 152.996,114.507 151.5,114C 152.61,111.263 152.777,108.429 152,105.5C 144.439,97.027 136.439,89.027 128,81.5C 121.868,95.2688 114.534,108.269 106,120.5C 102.402,125.753 97.569,127.92 91.5,127C 89.3762,125.878 87.5429,124.378 86,122.5C 82.4611,106.267 79.4611,89.9333 77,73.5C 75.992,75.259 74.492,76.4257 72.5,77C 65.7177,79.5577 59.051,82.3911 52.5,85.5C 51.3179,89.2327 49.9846,92.8993 48.5,96.5C 47.3355,90.8264 45.6688,85.3264 43.5,80C 45.4174,80.0275 47.084,80.8608 48.5,82.5C 57.1667,76.8333 65.8333,71.1667 74.5,65.5C 74.8333,64.5 75.1667,63.5 75.5,62.5C 74.3636,56.5462 73.6969,50.5462 73.5,44.5C 76.2788,44.2786 78.9455,44.612 81.5,45.5C 82.9616,46.4577 84.2949,47.6244 85.5,49C 92.5032,49.4966 92.8365,50.1632 86.5,51C 89.7241,54.7274 93.3908,57.8941 97.5,60.5C 98.4892,56.8927 98.8226,53.226 98.5,49.5C 96.8008,49.6602 95.1341,49.4935 93.5,49C 96.1667,48.3333 98.8333,48.3333 101.5,49C 100.257,50.8697 99.5899,53.0363 99.5,55.5C 99.5323,57.7588 99.8656,59.9255 100.5,62C 104.583,63.9568 108.749,64.4568 113,63.5C 113.818,58.2063 114.318,58.2063 114.5,63.5C 123.85,61.1552 127.35,55.1552 125,45.5C 123.85,41.8883 123.017,38.2217 122.5,34.5C 123.822,34.67 124.989,34.3366 126,33.5C 130.585,40.7928 132.752,48.7928 132.5,57.5C 130.421,61.7554 131.421,65.0887 135.5,67.5 Z"/></g>
<g><path style="opacity:1" fill="#fcfcfc" d="M 116.5,34.5 C 118.5,34.5 120.5,34.5 122.5,34.5C 123.017,38.2217 123.85,41.8883 125,45.5C 127.35,55.1552 123.85,61.1552 114.5,63.5C 114.318,58.2063 113.818,58.2063 113,63.5C 108.749,64.4568 104.583,63.9568 100.5,62C 99.8656,59.9255 99.5323,57.7588 99.5,55.5C 99.5899,53.0363 100.257,50.8697 101.5,49C 98.8333,48.3333 96.1667,48.3333 93.5,49C 95.1341,49.4935 96.8008,49.6602 98.5,49.5C 98.8226,53.226 98.4892,56.8927 97.5,60.5C 93.3908,57.8941 89.7241,54.7274 86.5,51C 92.8365,50.1632 92.5032,49.4966 85.5,49C 84.2949,47.6244 82.9616,46.4577 81.5,45.5C 81.5,45.1667 81.5,44.8333 81.5,44.5C 92.5752,43.4402 103.075,40.4402 113,35.5C 114.044,37.7148 114.71,40.0481 115,42.5C 115.711,40.1009 115.544,37.7676 114.5,35.5C 114.957,34.7025 115.624,34.3691 116.5,34.5 Z"/></g>
<g><path style="opacity:1" fill="#b4b4b3" d="M 102.5,42.5 C 103.451,43.9187 103.784,45.5853 103.5,47.5C 107.997,48.0555 112.164,47.3888 116,45.5C 116.483,46.448 116.649,47.448 116.5,48.5C 111.833,48.5 107.167,48.5 102.5,48.5C 102.5,46.5 102.5,44.5 102.5,42.5 Z"/></g>
<g><path style="opacity:1" fill="#f3f3f3" d="M 30.5,159.5 C 32.8333,159.5 35.1667,159.5 37.5,159.5C 37.6657,163.846 37.499,168.179 37,172.5C 31.3294,178.194 26.4961,177.528 22.5,170.5C 24.0009,169.248 25.6675,168.248 27.5,167.5C 28.9705,168.381 29.8038,169.714 30,171.5C 30.3333,171.167 30.6667,170.833 31,170.5C 31.5787,166.797 31.412,163.131 30.5,159.5 Z"/></g>
<g><path style="opacity:1" fill="#f1f1f1" d="M 85.5,159.5 C 87.5,159.5 89.5,159.5 91.5,159.5C 91.3921,164.87 91.7255,170.203 92.5,175.5C 88.5306,176.364 84.5306,176.198 80.5,175C 76.0991,168.635 77.7657,165.135 85.5,164.5C 85.5,162.833 85.5,161.167 85.5,159.5 Z"/></g>
<g><path style="opacity:1" fill="#f2f2f2" d="M 118.5,159.5 C 120.167,159.5 121.833,159.5 123.5,159.5C 123.215,161.288 123.548,162.955 124.5,164.5C 128.145,163.409 130.812,164.742 132.5,168.5C 131.399,170.642 130.399,172.808 129.5,175C 125.848,175.499 122.182,175.665 118.5,175.5C 117.27,170.122 117.27,164.789 118.5,159.5 Z"/></g>
<g><path style="opacity:1" fill="#e9e9e9" d="M 44.5,162.5 C 47.6265,163.229 50.2931,164.729 52.5,167C 52.2351,169.151 51.2351,170.818 49.5,172C 50.1667,173 50.8333,174 51.5,175C 42.3076,178.125 38.141,174.958 39,165.5C 40.8761,164.391 42.7095,163.391 44.5,162.5 Z"/></g>
<g><path style="opacity:1" fill="#f0f0f0" d="M 106.5,170.5 C 104.011,170.298 101.677,170.798 99.5,172C 101.265,172.64 102.932,172.473 104.5,171.5C 105.028,172.721 105.695,173.887 106.5,175C 101.874,177.151 97.707,176.651 94,173.5C 91.7356,167.102 93.9022,163.436 100.5,162.5C 102.5,163.5 104.5,164.5 106.5,165.5C 107.434,167.095 107.434,168.761 106.5,170.5 Z"/></g>
<g><path style="opacity:1" fill="#ebebeb" d="M 135.5,163.5 C 139.131,163.032 142.465,163.699 145.5,165.5C 146.606,167.284 146.606,169.118 145.5,171C 145.903,172.473 146.57,173.806 147.5,175C 143.227,175.695 138.894,176.195 134.5,176.5C 132.284,172.446 133.284,169.612 137.5,168C 136.552,167.517 135.552,167.351 134.5,167.5C 134.433,166.041 134.766,164.708 135.5,163.5 Z"/></g>
<g><path style="opacity:1" fill="#f6f6f6" d="M 160.5,168.5 C 158.83,168.249 157.33,167.582 156,166.5C 156.525,168.574 158.025,169.907 160.5,170.5C 160.938,170.435 161.272,170.601 161.5,171C 160.833,172.333 160.167,173.667 159.5,175C 154.97,176.227 150.97,175.394 147.5,172.5C 149.485,170.067 151.652,170.067 154,172.5C 154.167,172.167 154.333,171.833 154.5,171.5C 152.5,170.167 150.5,168.833 148.5,167.5C 149.04,166.252 149.707,165.085 150.5,164C 154.533,162.96 158.199,163.626 161.5,166C 160.748,166.671 160.414,167.504 160.5,168.5 Z"/></g>
<g><path style="opacity:1" fill="#efefef" d="M 175.5,170.5 C 173.011,170.298 170.677,170.798 168.5,172C 170.265,172.64 171.932,172.473 173.5,171.5C 174.028,172.721 174.695,173.887 175.5,175C 165.739,178.126 161.406,174.626 162.5,164.5C 165.16,163.653 167.826,163.153 170.5,163C 172.167,163.833 173.833,164.667 175.5,165.5C 176.434,167.095 176.434,168.761 175.5,170.5 Z"/></g>
<g><path style="opacity:1" fill="#f3f3f3" d="M 53.5,163.5 C 55.8568,163.337 58.1902,163.503 60.5,164C 59.2309,166.139 59.2309,168.305 60.5,170.5C 61.4519,168.955 61.7852,167.288 61.5,165.5C 63.5,165.833 65.5,166.167 67.5,166.5C 66.8413,169.455 66.5079,172.455 66.5,175.5C 62.3628,175.854 58.3628,175.354 54.5,174C 53.5442,170.606 53.2108,167.106 53.5,163.5 Z"/></g>
<g><path style="opacity:1" fill="#2d2d2d" d="M 44.5,166.5 C 46.9828,166.73 47.4828,167.397 46,168.5C 44.9701,168.164 44.4701,167.497 44.5,166.5 Z"/></g>
<g><path style="opacity:1" fill="#353535" d="M 99.5,166.5 C 103.373,168.154 103.04,168.654 98.5,168C 99.056,167.617 99.3893,167.117 99.5,166.5 Z"/></g>
<g><path style="opacity:1" fill="#373737" d="M 168.5,166.5 C 172.373,168.154 172.04,168.654 167.5,168C 168.056,167.617 168.389,167.117 168.5,166.5 Z"/></g>
<g><path style="opacity:1" fill="#363636" d="M 83.5,168.5 C 84.5,168.5 85.5,168.5 86.5,168.5C 86.5,169.5 86.5,170.5 86.5,171.5C 85.5,171.5 84.5,171.5 83.5,171.5C 83.5,170.5 83.5,169.5 83.5,168.5 Z"/></g>
<g><path style="opacity:1" fill="#2d2d2d" d="M 123.5,168.5 C 124.5,168.5 125.5,168.5 126.5,168.5C 126.5,169.5 126.5,170.5 126.5,171.5C 125.5,171.5 124.5,171.5 123.5,171.5C 123.5,170.5 123.5,169.5 123.5,168.5 Z"/></g>
<g><path style="opacity:1" fill="#6d6d6d" d="M 160.5,168.5 C 160.5,169.167 160.5,169.833 160.5,170.5C 158.025,169.907 156.525,168.574 156,166.5C 157.33,167.582 158.83,168.249 160.5,168.5 Z"/></g>
<g><path style="opacity:1" fill="#949494" d="M 106.5,170.5 C 106.158,171.338 105.492,171.672 104.5,171.5C 102.932,172.473 101.265,172.64 99.5,172C 101.677,170.798 104.011,170.298 106.5,170.5 Z"/></g>
<g><path style="opacity:1" fill="#939393" d="M 175.5,170.5 C 175.158,171.338 174.492,171.672 173.5,171.5C 171.932,172.473 170.265,172.64 168.5,172C 170.677,170.798 173.011,170.298 175.5,170.5 Z"/></g>
<g><path style="opacity:1" fill="#2f2f2f" d="M 138.5,171.5 C 141.001,171.511 141.168,172.178 139,173.5C 138.536,172.906 138.369,172.239 138.5,171.5 Z"/></g>
</svg>
