<?xml version="1.0" encoding="UTF-8"?>
<!DOCTYPE svg PUBLIC "-//W3C//DTD SVG 1.1//EN" "http://www.w3.org/Graphics/SVG/1.1/DTD/svg11.dtd">
<svg xmlns="http://www.w3.org/2000/svg" version="1.1" width="200px" height="200px" style="shape-rendering:geometricPrecision; text-rendering:geometricPrecision; image-rendering:optimizeQuality; fill-rule:evenodd; clip-rule:evenodd" xmlns:xlink="http://www.w3.org/1999/xlink">
<g><path style="opacity:0.998" fill="#222222" d="M 8.5,-0.5 C 69.1667,-0.5 129.833,-0.5 190.5,-0.5C 191.987,0.803551 193.654,1.97022 195.5,3C 196.697,5.01533 198.03,6.84866 199.5,8.5C 199.5,69.1667 199.5,129.833 199.5,190.5C 198.196,191.987 197.03,193.654 196,195.5C 193.985,196.697 192.151,198.03 190.5,199.5C 129.833,199.5 69.1667,199.5 8.5,199.5C 7.01307,198.196 5.3464,197.03 3.5,196C 2.30342,193.985 0.970083,192.151 -0.5,190.5C -0.5,129.833 -0.5,69.1667 -0.5,8.5C 0.803551,7.01307 1.97022,5.3464 3,3.5C 5.01533,2.30342 6.84866,0.970083 8.5,-0.5 Z"/></g>
<g><path style="opacity:1" fill="#03a8f3" d="M 15.5,9.5 C 70.8343,9.33334 126.168,9.50001 181.5,10C 185.02,10.504 187.52,12.3374 189,15.5C 189.5,56.832 189.667,98.1653 189.5,139.5C 129.5,139.5 69.5,139.5 9.5,139.5C 9.33334,98.1653 9.50001,56.832 10,15.5C 11.3597,12.9774 13.193,10.9774 15.5,9.5 Z"/></g>
<g><path style="opacity:1" fill="#4761ff" d="M 108.5,32.5 C 111.119,32.2317 113.619,32.565 116,33.5C 116.5,34.5 117,35.5 117.5,36.5C 116.393,40.8111 115.393,45.1445 114.5,49.5C 120.394,55.2239 125.727,61.3906 130.5,68C 134.329,68.7576 137.662,67.7576 140.5,65C 143.784,61.5945 146.95,58.0945 150,54.5C 149.166,62.8482 147.999,71.1816 146.5,79.5C 147.317,85.3456 148.317,91.1789 149.5,97C 149.167,97.8333 148.833,98.6667 148.5,99.5C 144.015,95.5154 139.682,91.3487 135.5,87C 133.305,85.627 130.971,85.2937 128.5,86C 125.547,89.4084 122.713,92.9084 120,96.5C 119.798,100.529 120.631,104.363 122.5,108C 119.291,110.44 115.625,111.107 111.5,110C 107.492,108.887 103.659,107.387 100,105.5C 98.3005,106.406 96.4672,106.739 94.5,106.5C 94.6633,108.857 94.4966,111.19 94,113.5C 93.3109,114.357 92.4776,115.023 91.5,115.5C 86.4589,113.294 81.7923,110.461 77.5,107C 63.6099,104.978 52.4433,98.4783 44,87.5C 43.3333,86.1667 43.3333,84.8333 44,83.5C 46.1846,82.3305 48.3512,81.1638 50.5,80C 48.1218,79.4888 45.7885,78.8221 43.5,78C 41.8198,77.6532 40.8198,76.6532 40.5,75C 47.0668,59.433 58.4001,49.0997 74.5,44C 79.7608,42.6145 85.0941,41.6145 90.5,41C 96.2079,37.3101 102.208,34.4768 108.5,32.5 Z"/></g>
<g><path style="opacity:1" fill="#efefef" d="M 18.5,157.5 C 21.6229,157.558 23.9563,158.892 25.5,161.5C 25.0098,165.697 23.3432,166.364 20.5,163.5C 16.5,165.833 16.5,168.167 20.5,170.5C 21.8139,169.687 22.9805,168.687 24,167.5C 25.0458,169.09 26.2125,170.59 27.5,172C 22.4241,176.401 17.2574,176.568 12,172.5C 8.95224,165.093 11.1189,160.093 18.5,157.5 Z"/></g>
<g><path style="opacity:1" fill="#f5f5f5" d="M 27.5,158.5 C 31.7393,157.789 34.4059,159.456 35.5,163.5C 37.8615,162.224 40.0281,162.558 42,164.5C 41.7988,167.777 41.6321,171.111 41.5,174.5C 39.8333,174.5 38.1667,174.5 36.5,174.5C 35.8333,165.167 35.1667,165.167 34.5,174.5C 32.8333,174.5 31.1667,174.5 29.5,174.5C 28.6161,169.196 27.9494,163.863 27.5,158.5 Z"/></g>
<g><path style="opacity:1" fill="#979797" d="M 165.5,159.5 C 164.167,159.5 162.833,159.5 161.5,159.5C 161.737,160.791 161.404,161.791 160.5,162.5C 160.5,161.167 160.5,159.833 160.5,158.5C 162.415,158.216 164.081,158.549 165.5,159.5 Z"/></g>
<g><path style="opacity:1" fill="#f7f7f7" d="M 165.5,159.5 C 166.434,160.568 166.768,161.901 166.5,163.5C 167.5,163.5 168.5,163.5 169.5,163.5C 169.5,164.833 169.5,166.167 169.5,167.5C 168.167,167.5 166.833,167.5 165.5,167.5C 165.5,169.833 165.5,172.167 165.5,174.5C 163.833,174.5 162.167,174.5 160.5,174.5C 160.5,172.167 160.5,169.833 160.5,167.5C 159.5,167.5 158.5,167.5 157.5,167.5C 157.5,165.833 157.5,164.167 157.5,162.5C 158.5,162.5 159.5,162.5 160.5,162.5C 161.404,161.791 161.737,160.791 161.5,159.5C 162.833,159.5 164.167,159.5 165.5,159.5 Z"/></g>
<g><path style="opacity:1" fill="#ebebeb" d="M 45.5,162.5 C 49.1313,162.032 52.4646,162.699 55.5,164.5C 56.606,166.284 56.606,168.118 55.5,170C 55.9031,171.473 56.5697,172.806 57.5,174C 53.2271,174.695 48.8937,175.195 44.5,175.5C 42.2836,171.446 43.2836,168.612 47.5,167C 46.552,166.517 45.552,166.351 44.5,166.5C 44.4326,165.041 44.7659,163.708 45.5,162.5 Z"/></g>
<g><path style="opacity:1" fill="#ededed" d="M 60.5,162.5 C 62.4918,162.328 64.1585,162.995 65.5,164.5C 67.8333,161.833 70.1667,161.833 72.5,164.5C 73.487,167.768 73.8204,171.102 73.5,174.5C 71.5,174.5 69.5,174.5 67.5,174.5C 67.2971,165.365 66.6304,165.365 65.5,174.5C 64.0695,174.421 62.7362,174.754 61.5,175.5C 59.8153,172.606 58.8153,169.439 58.5,166C 58.8618,164.566 59.5285,163.399 60.5,162.5 Z"/></g>
<g><path style="opacity:1" fill="#f1f1f1" d="M 81.5,162.5 C 83.5,162.5 85.5,162.5 87.5,162.5C 88.1667,167.16 88.3334,171.826 88,176.5C 84.7353,179.924 81.2353,180.257 77.5,177.5C 77.9767,176.522 78.6433,175.689 79.5,175C 74.5332,172.58 73.5332,169.08 76.5,164.5C 78.2914,163.83 79.9581,163.163 81.5,162.5 Z"/></g>
<g><path style="opacity:1" fill="#e9e9e9" d="M 95.5,161.5 C 98.6265,162.229 101.293,163.729 103.5,166C 103.235,168.151 102.235,169.818 100.5,171C 101.167,172 101.833,173 102.5,174C 93.3076,177.125 89.141,173.958 90,164.5C 91.8761,163.391 93.7095,162.391 95.5,161.5 Z"/></g>
<g><path style="opacity:1" fill="#f5f5f5" d="M 119.5,174.5 C 118.833,165.167 118.167,165.167 117.5,174.5C 116.167,174.5 114.833,174.5 113.5,174.5C 112.508,166.525 111.508,166.525 110.5,174.5C 109.264,175.246 107.93,175.579 106.5,175.5C 105.725,171.186 105.059,166.853 104.5,162.5C 107.079,162.083 109.246,162.75 111,164.5C 111.689,163.643 112.522,162.977 113.5,162.5C 116.888,162.337 120.221,162.837 123.5,164C 124.456,167.394 124.789,170.894 124.5,174.5C 122.833,174.5 121.167,174.5 119.5,174.5 Z"/></g>
<g><path style="opacity:1" fill="#e9e9e9" d="M 131.5,161.5 C 133.928,162.212 136.261,163.212 138.5,164.5C 139.148,167.845 139.148,171.012 138.5,174C 129.918,177.148 125.751,174.314 126,165.5C 127.456,163.535 129.29,162.201 131.5,161.5 Z"/></g>
<g><path style="opacity:1" fill="#f5f5f5" d="M 182.5,167.5 C 180.83,167.249 179.33,166.582 178,165.5C 178.525,167.574 180.025,168.907 182.5,169.5C 183.377,173.452 181.543,175.119 177,174.5C 173.911,174.886 171.411,173.886 169.5,171.5C 170.188,170.145 171.188,169.145 172.5,168.5C 171.261,167.788 170.761,166.788 171,165.5C 174.335,162.051 178.168,161.551 182.5,164C 183.684,165.145 183.684,166.312 182.5,167.5 Z"/></g>
<g><path style="opacity:1" fill="#f4f4f4" d="M 143.5,162.5 C 145.451,162.227 146.951,162.893 148,164.5C 150.048,162.213 152.215,162.046 154.5,164C 155.456,167.394 155.789,170.894 155.5,174.5C 153.833,174.5 152.167,174.5 150.5,174.5C 149.938,165.43 148.605,165.43 146.5,174.5C 145.264,175.246 143.93,175.579 142.5,175.5C 142.459,171.384 141.793,167.384 140.5,163.5C 141.791,163.737 142.791,163.404 143.5,162.5 Z"/></g>
<g><path style="opacity:1" fill="#2b2b2b" d="M 95.5,165.5 C 97.9828,165.73 98.4828,166.397 97,167.5C 95.9701,167.164 95.4701,166.497 95.5,165.5 Z"/></g>
<g><path style="opacity:1" fill="#2e2e2e" d="M 131.5,165.5 C 133.983,165.73 134.483,166.397 133,167.5C 131.97,167.164 131.47,166.497 131.5,165.5 Z"/></g>
<g><path style="opacity:1" fill="#707070" d="M 182.5,167.5 C 182.5,168.167 182.5,168.833 182.5,169.5C 180.025,168.907 178.525,167.574 178,165.5C 179.33,166.582 180.83,167.249 182.5,167.5 Z"/></g>
<g><path style="opacity:1" fill="#444444" d="M 79.5,167.5 C 80.5,167.5 81.5,167.5 82.5,167.5C 81.7542,171.31 80.7542,171.31 79.5,167.5 Z"/></g>
<g><path style="opacity:1" fill="#4f4f4f" d="M 172.5,168.5 C 174.8,168.522 175.967,169.522 176,171.5C 174.482,170.837 173.315,169.837 172.5,168.5 Z"/></g>
<g><path style="opacity:1" fill="#707070" d="M 119.5,174.5 C 118.833,174.5 118.167,174.5 117.5,174.5C 118.167,165.167 118.833,165.167 119.5,174.5 Z"/></g>
<g><path style="opacity:1" fill="#2f2f2f" d="M 48.5,170.5 C 51.0009,170.511 51.1676,171.178 49,172.5C 48.5357,171.906 48.369,171.239 48.5,170.5 Z"/></g>
<g><path style="opacity:1" fill="#404040" d="M 80.5,173.5 C 81.675,173.281 82.675,173.614 83.5,174.5C 81.9483,175.798 80.9483,175.465 80.5,173.5 Z"/></g>
</svg>
