<?xml version="1.0" encoding="UTF-8"?>
<!DOCTYPE svg PUBLIC "-//W3C//DTD SVG 1.1//EN" "http://www.w3.org/Graphics/SVG/1.1/DTD/svg11.dtd">
<svg xmlns="http://www.w3.org/2000/svg" version="1.1" width="200px" height="200px" style="shape-rendering:geometricPrecision; text-rendering:geometricPrecision; image-rendering:optimizeQuality; fill-rule:evenodd; clip-rule:evenodd" xmlns:xlink="http://www.w3.org/1999/xlink">
<g><path style="opacity:0.998" fill="#222222" d="M 8.5,-0.5 C 69.1667,-0.5 129.833,-0.5 190.5,-0.5C 191.987,0.803551 193.654,1.97022 195.5,3C 196.697,5.01533 198.03,6.84866 199.5,8.5C 199.5,69.1667 199.5,129.833 199.5,190.5C 198.196,191.987 197.03,193.654 196,195.5C 193.985,196.697 192.151,198.03 190.5,199.5C 129.833,199.5 69.1667,199.5 8.5,199.5C 7.01307,198.196 5.3464,197.03 3.5,196C 2.30342,193.985 0.970083,192.151 -0.5,190.5C -0.5,129.833 -0.5,69.1667 -0.5,8.5C 0.803551,7.01307 1.97022,5.3464 3,3.5C 5.01533,2.30342 6.84866,0.970083 8.5,-0.5 Z"/></g>
<g><path style="opacity:1" fill="#463a1c" d="M 189.5,106.5 C 187.635,80.0148 186.302,53.3482 185.5,26.5C 144.16,28.4051 102.827,30.4051 61.5,32.5C 60.8333,32.5 60.1667,32.5 59.5,32.5C 43.8395,33.2934 28.1729,33.96 12.5,34.5C 13.04,49.5067 13.7067,64.5067 14.5,79.5C 14.185,83.3714 14.5184,87.0381 15.5,90.5C 15.5798,101.843 15.9132,113.176 16.5,124.5C 42.3441,123.603 68.0107,122.27 93.5,120.5C 94.8333,120.5 96.1667,120.5 97.5,120.5C 117.348,120.032 137.015,119.032 156.5,117.5C 167.511,117.452 178.511,117.119 189.5,116.5C 189.5,124.167 189.5,131.833 189.5,139.5C 129.5,139.5 69.5,139.5 9.5,139.5C 9.33334,98.1653 9.50001,56.832 10,15.5C 11.1667,13 13,11.1667 15.5,10C 72.2493,9.00843 128.916,9.34177 185.5,11C 187.049,12.214 188.215,13.714 189,15.5C 189.5,45.8315 189.667,76.1648 189.5,106.5 Z"/></g>
<g><path style="opacity:1" fill="#fefefd" d="M 189.5,106.5 C 189.5,109.833 189.5,113.167 189.5,116.5C 178.511,117.119 167.511,117.452 156.5,117.5C 161.279,113.565 164.612,108.565 166.5,102.5C 167.167,102.5 167.5,102.167 167.5,101.5C 167.652,107.424 170.319,111.924 175.5,115C 181.454,116.366 185.121,114.199 186.5,108.5C 187.653,102.347 187.82,96.0137 187,89.5C 186.722,88.5842 186.222,87.9175 185.5,87.5C 183.242,82.249 179.242,79.249 173.5,78.5C 172.841,61.8607 164.841,50.5273 149.5,44.5C 129.944,35.8515 109.611,33.1848 88.5,36.5C 87.1667,36.5 85.8333,36.5 84.5,36.5C 82.516,35.8443 80.516,35.1776 78.5,34.5C 75.7082,34.7606 73.3749,35.7606 71.5,37.5C 69.6263,38.6299 67.6263,39.6299 65.5,40.5C 64.7025,40.0431 64.3691,39.3764 64.5,38.5C 65.5735,37.7494 65.7401,36.7494 65,35.5C 64.015,34.1859 62.8484,33.1859 61.5,32.5C 102.827,30.4051 144.16,28.4051 185.5,26.5C 186.302,53.3482 187.635,80.0148 189.5,106.5 Z"/></g>
<g><path style="opacity:1" fill="#fefefd" d="M 59.5,32.5 C 57.604,33.4805 55.604,34.4805 53.5,35.5C 48.6506,33.5642 44.6506,34.5642 41.5,38.5C 40.1634,39.3149 39.1634,40.4815 38.5,42C 30.4712,42.2089 25.1379,46.0422 22.5,53.5C 18.2193,57.8517 16.886,63.0184 18.5,69C 16.6792,72.4472 15.3459,75.9472 14.5,79.5C 13.7067,64.5067 13.04,49.5067 12.5,34.5C 28.1729,33.96 43.8395,33.2934 59.5,32.5 Z"/></g>
<g><path style="opacity:1" fill="#592618" d="M 84.5,36.5 C 85.8465,38.5368 87.1798,40.5368 88.5,42.5C 88.631,43.2389 88.4643,43.9056 88,44.5C 87.2917,43.6195 86.4584,42.9528 85.5,42.5C 81.8013,38.4866 77.1346,36.8199 71.5,37.5C 73.3749,35.7606 75.7082,34.7606 78.5,34.5C 80.516,35.1776 82.516,35.8443 84.5,36.5 Z"/></g>
<g><path style="opacity:1" fill="#ebba4c" d="M 64.5,38.5 C 64.3691,39.3764 64.7025,40.0431 65.5,40.5C 67.6263,39.6299 69.6263,38.6299 71.5,37.5C 77.1346,36.8199 81.8013,38.4866 85.5,42.5C 79.4908,42.3338 73.4908,42.5005 67.5,43C 65.5483,43.3661 63.8816,44.1995 62.5,45.5C 61.5272,44.2086 60.5272,44.2086 59.5,45.5C 56.8645,41.5681 57.1978,38.0681 60.5,35C 61.448,34.5172 62.448,34.3505 63.5,34.5C 63.4326,35.9587 63.7659,37.2921 64.5,38.5 Z"/></g>
<g><path style="opacity:1" fill="#dc953c" d="M 59.5,32.5 C 60.1667,32.5 60.8333,32.5 61.5,32.5C 62.8484,33.1859 64.015,34.1859 65,35.5C 65.7401,36.7494 65.5735,37.7494 64.5,38.5C 63.7659,37.2921 63.4326,35.9587 63.5,34.5C 62.448,34.3505 61.448,34.5172 60.5,35C 57.1978,38.0681 56.8645,41.5681 59.5,45.5C 60.5272,44.2086 61.5272,44.2086 62.5,45.5C 60.7893,49.2042 57.7893,51.2042 53.5,51.5C 56.589,47.6778 57.2556,43.3445 55.5,38.5C 53.6512,36.8258 51.4845,35.8258 49,35.5C 46.5773,36.6257 44.0773,37.6257 41.5,38.5C 44.6506,34.5642 48.6506,33.5642 53.5,35.5C 55.604,34.4805 57.604,33.4805 59.5,32.5 Z"/></g>
<g><path style="opacity:1" fill="#f1c74a" d="M 84.5,36.5 C 85.8333,36.5 87.1667,36.5 88.5,36.5C 88.7828,37.2891 89.2828,37.9558 90,38.5C 95.7747,37.6901 101.608,37.8568 107.5,39C 110.234,39.2104 112.734,40.0437 115,41.5C 115.333,41.1667 115.667,40.8333 116,40.5C 122.249,43.304 128.082,45.9707 133.5,48.5C 133.281,49.675 133.614,50.675 134.5,51.5C 145.281,58.6413 148.948,68.6413 145.5,81.5C 144.791,82.404 143.791,82.7373 142.5,82.5C 136.01,82.8483 129.677,82.1817 123.5,80.5C 123.855,78.1103 124.522,75.777 125.5,73.5C 125.417,70.4247 124.084,68.0914 121.5,66.5C 121.833,65.8333 122.167,65.1667 122.5,64.5C 121.147,63.4763 120.48,62.143 120.5,60.5C 119.5,60.5 118.5,60.5 117.5,60.5C 117.851,57.1884 116.518,54.855 113.5,53.5C 110.594,50.0346 106.927,47.5346 102.5,46C 97.8946,44.5153 93.228,43.3487 88.5,42.5C 87.1798,40.5368 85.8465,38.5368 84.5,36.5 Z"/></g>
<g><path style="opacity:1" fill="#faec9c" d="M 85.5,42.5 C 86.4584,42.9528 87.2917,43.6195 88,44.5C 88.4643,43.9056 88.631,43.2389 88.5,42.5C 93.228,43.3487 97.8946,44.5153 102.5,46C 106.927,47.5346 110.594,50.0346 113.5,53.5C 105.865,54.4945 98.198,55.1612 90.5,55.5C 89.7312,50.2309 86.7312,47.0642 81.5,46C 76.3415,45.09 71.3415,45.59 66.5,47.5C 65.7025,47.9569 65.3691,48.6236 65.5,49.5C 63.7952,51.1921 61.7952,52.5254 59.5,53.5C 57.5,53.5 56.5,54.5 56.5,56.5C 55.8333,56.5 55.5,56.8333 55.5,57.5C 54.0093,59.1268 52.5093,60.7935 51,62.5C 49.8615,62.0109 48.6948,61.6775 47.5,61.5C 46.7095,60.5987 45.7095,59.9321 44.5,59.5C 43.2067,58.8418 41.7067,58.5085 40,58.5C 36.4586,59.025 32.9586,59.6917 29.5,60.5C 30.925,59.078 31.925,57.4113 32.5,55.5C 37.3208,56.5974 41.9874,56.5974 46.5,55.5C 49.1017,54.5491 51.4351,53.2158 53.5,51.5C 57.7893,51.2042 60.7893,49.2042 62.5,45.5C 63.8816,44.1995 65.5483,43.3661 67.5,43C 73.4908,42.5005 79.4908,42.3338 85.5,42.5 Z"/></g>
<g><path style="opacity:1" fill="#dfa03d" d="M 90.5,55.5 C 90.2785,58.0673 89.6118,60.4006 88.5,62.5C 89.1051,52.2707 84.2718,46.9373 74,46.5C 72.0517,47.1094 70.2184,47.776 68.5,48.5C 67.791,49.404 66.791,49.7373 65.5,49.5C 65.3691,48.6236 65.7025,47.9569 66.5,47.5C 71.3415,45.59 76.3415,45.09 81.5,46C 86.7312,47.0642 89.7312,50.2309 90.5,55.5 Z"/></g>
<g><path style="opacity:1" fill="#dc913c" d="M 149.5,44.5 C 164.841,50.5273 172.841,61.8607 173.5,78.5C 169.215,77.7917 164.882,77.2917 160.5,77C 163.146,76.5026 165.813,76.3359 168.5,76.5C 169.435,68.7013 166.435,63.0347 159.5,59.5C 157.317,54.3015 153.817,50.3015 149,47.5C 148.53,46.4232 148.697,45.4232 149.5,44.5 Z"/></g>
<g><path style="opacity:1" fill="#f4f6f0" d="M 68.5,48.5 C 84.8098,46.7873 90.1431,53.454 84.5,68.5C 83.0937,68.9731 82.427,69.9731 82.5,71.5C 80.9731,71.427 79.9731,72.0937 79.5,73.5C 76.8646,74.8109 74.5313,76.4776 72.5,78.5C 67.312,80.1435 62.312,79.8102 57.5,77.5C 56.5,75.8333 55.1667,74.5 53.5,73.5C 52.6618,73.1583 52.3284,72.4916 52.5,71.5C 52.0406,66.4853 53.0406,61.8187 55.5,57.5C 55.5,56.8333 55.8333,56.5 56.5,56.5C 57.8333,55.8333 58.8333,54.8333 59.5,53.5C 61.7952,52.5254 63.7952,51.1921 65.5,49.5C 66.791,49.7373 67.791,49.404 68.5,48.5 Z"/></g>
<g><path style="opacity:1" fill="#1f1b1b" d="M 88.5,62.5 C 87.675,64.8102 86.3417,66.8102 84.5,68.5C 90.1431,53.454 84.8098,46.7873 68.5,48.5C 70.2184,47.776 72.0517,47.1094 74,46.5C 84.2718,46.9373 89.1051,52.2707 88.5,62.5 Z"/></g>
<g><path style="opacity:1" fill="#cc7332" d="M 46.5,55.5 C 41.9874,56.5974 37.3208,56.5974 32.5,55.5C 32.9867,54.5266 33.4867,53.5266 34,52.5C 37.8012,54.926 41.9679,55.926 46.5,55.5 Z"/></g>
<g><path style="opacity:1" fill="#150b03" d="M 59.5,53.5 C 58.8333,54.8333 57.8333,55.8333 56.5,56.5C 56.5,54.5 57.5,53.5 59.5,53.5 Z"/></g>
<g><path style="opacity:1" fill="#f0c852" d="M 53.5,51.5 C 51.4351,53.2158 49.1017,54.5491 46.5,55.5C 41.9679,55.926 37.8012,54.926 34,52.5C 33.4867,53.5266 32.9867,54.5266 32.5,55.5C 28.2272,58.4335 24.2272,61.7668 20.5,65.5C 20.1667,64.5 19.8333,63.5 19.5,62.5C 20.2211,59.3948 21.2211,56.3948 22.5,53.5C 25.1379,46.0422 30.4712,42.2089 38.5,42C 39.1634,40.4815 40.1634,39.3149 41.5,38.5C 44.0773,37.6257 46.5773,36.6257 49,35.5C 51.4845,35.8258 53.6512,36.8258 55.5,38.5C 57.2556,43.3445 56.589,47.6778 53.5,51.5 Z"/></g>
<g><path style="opacity:1" fill="#ecb944" d="M 149.5,44.5 C 148.697,45.4232 148.53,46.4232 149,47.5C 153.817,50.3015 157.317,54.3015 159.5,59.5C 166.435,63.0347 169.435,68.7013 168.5,76.5C 165.813,76.3359 163.146,76.5026 160.5,77C 164.882,77.2917 169.215,77.7917 173.5,78.5C 179.242,79.249 183.242,82.249 185.5,87.5C 185.5,88.1667 185.5,88.8333 185.5,89.5C 182.642,85.4804 178.975,82.3138 174.5,80C 168.863,80.3846 163.197,79.8846 157.5,78.5C 153.387,79.094 149.387,80.094 145.5,81.5C 148.948,68.6413 145.281,58.6413 134.5,51.5C 133.614,50.675 133.281,49.675 133.5,48.5C 128.082,45.9707 122.249,43.304 116,40.5C 115.667,40.8333 115.333,41.1667 115,41.5C 112.734,40.0437 110.234,39.2104 107.5,39C 101.608,37.8568 95.7747,37.6901 90,38.5C 89.2828,37.9558 88.7828,37.2891 88.5,36.5C 109.611,33.1848 129.944,35.8515 149.5,44.5 Z"/></g>
<g><path style="opacity:1" fill="#ebeee9" d="M 44.5,59.5 C 45.7095,59.9321 46.7095,60.5987 47.5,61.5C 50.7215,64.6124 51.3881,68.2791 49.5,72.5C 48.8333,72.8333 48.1667,73.1667 47.5,73.5C 47.5,74.1667 47.5,74.8333 47.5,75.5C 41.2031,81.1232 34.5364,81.7898 27.5,77.5C 26.1667,74.5 26.1667,71.5 27.5,68.5C 28.9063,68.0269 29.573,67.0269 29.5,65.5C 32.2051,64.1465 34.5384,62.3132 36.5,60C 39.146,59.5026 41.8127,59.3359 44.5,59.5 Z"/></g>
<g><path style="opacity:1" fill="#e39e3f" d="M 114.5,62.5 C 113.657,64.1733 112.324,65.34 110.5,66C 106.896,67.1539 103.229,67.9872 99.5,68.5C 97.8333,68.5 96.1667,68.5 94.5,68.5C 94.2267,66.549 94.8934,65.049 96.5,64C 102.493,62.2095 108.493,61.7095 114.5,62.5 Z"/></g>
<g><path style="opacity:1" fill="#5e3a1e" d="M 55.5,57.5 C 53.0406,61.8187 52.0406,66.4853 52.5,71.5C 51.8826,71.3893 51.3826,71.056 51,70.5C 50.7216,71.4158 50.2216,72.0825 49.5,72.5C 51.3881,68.2791 50.7215,64.6124 47.5,61.5C 48.6948,61.6775 49.8615,62.0109 51,62.5C 52.5093,60.7935 54.0093,59.1268 55.5,57.5 Z"/></g>
<g><path style="opacity:1" fill="#393a3a" d="M 29.5,65.5 C 29.573,67.0269 28.9063,68.0269 27.5,68.5C 27.427,66.9731 28.0937,65.9731 29.5,65.5 Z"/></g>
<g><path style="opacity:1" fill="#f8de6b" d="M 113.5,53.5 C 116.518,54.855 117.851,57.1884 117.5,60.5C 116.5,61.1667 115.5,61.8333 114.5,62.5C 108.493,61.7095 102.493,62.2095 96.5,64C 94.8934,65.049 94.2267,66.549 94.5,68.5C 96.1667,68.5 97.8333,68.5 99.5,68.5C 100.535,71.7964 100.535,74.963 99.5,78C 91.9147,82.0831 83.9147,83.0831 75.5,81C 74.0577,80.6232 73.0577,79.7899 72.5,78.5C 74.5313,76.4776 76.8646,74.8109 79.5,73.5C 81.0269,73.573 82.0269,72.9063 82.5,71.5C 83.9063,71.0269 84.573,70.0269 84.5,68.5C 86.3417,66.8102 87.675,64.8102 88.5,62.5C 89.6118,60.4006 90.2785,58.0673 90.5,55.5C 98.198,55.1612 105.865,54.4945 113.5,53.5 Z"/></g>
<g><path style="opacity:1" fill="#663d1b" d="M 84.5,68.5 C 84.573,70.0269 83.9063,71.0269 82.5,71.5C 82.427,69.9731 83.0937,68.9731 84.5,68.5 Z"/></g>
<g><path style="opacity:1" fill="#869d4a" d="M 58.5,60.5 C 64.0133,59.744 67.0133,62.0774 67.5,67.5C 67.3142,69.5795 66.3142,71.0795 64.5,72C 64.8333,72.3333 65.1667,72.6667 65.5,73C 59.7072,76.5671 55.7072,75.0671 53.5,68.5C 54.3709,65.304 56.0375,62.6373 58.5,60.5 Z"/></g>
<g><path style="opacity:1" fill="#242125" d="M 59.5,64.5 C 59.6941,66.9118 61.0274,67.9118 63.5,67.5C 61.8008,72.6487 59.4675,72.8154 56.5,68C 56.9778,66.3576 57.9778,65.1909 59.5,64.5 Z"/></g>
<g><path style="opacity:1" fill="#fcfcf8" d="M 63.5,67.5 C 61.0274,67.9118 59.6941,66.9118 59.5,64.5C 60.6009,63.4017 61.9343,63.235 63.5,64C 64.6843,65.1455 64.6843,66.3121 63.5,67.5 Z"/></g>
<g><path style="opacity:1" fill="#7f934a" d="M 46.5,66.5 C 48.3751,68.5943 48.7084,70.9276 47.5,73.5C 42.8749,77.6834 39.5416,76.85 37.5,71C 37.5993,67.0677 39.5993,64.901 43.5,64.5C 45.0377,64.4534 46.0377,65.1201 46.5,66.5 Z"/></g>
<g><path style="opacity:1" fill="#272429" d="M 43.5,66.5 C 43.2852,68.1788 43.9519,69.1788 45.5,69.5C 45.4804,73.5129 44.147,74.1795 41.5,71.5C 40.1766,69.146 40.8433,67.4793 43.5,66.5 Z"/></g>
<g><path style="opacity:1" fill="#f9f9f8" d="M 43.5,66.5 C 44.5,66.5 45.5,66.5 46.5,66.5C 46.4431,67.609 46.1098,68.609 45.5,69.5C 43.9519,69.1788 43.2852,68.1788 43.5,66.5 Z"/></g>
<g><path style="opacity:1" fill="#572924" d="M 49.5,72.5 C 49.4431,73.609 49.1098,74.609 48.5,75.5C 48.1667,75.5 47.8333,75.5 47.5,75.5C 47.5,74.8333 47.5,74.1667 47.5,73.5C 48.1667,73.1667 48.8333,72.8333 49.5,72.5 Z"/></g>
<g><path style="opacity:1" fill="#45201b" d="M 27.5,68.5 C 26.1667,71.5 26.1667,74.5 27.5,77.5C 24.8333,74.5 24.8333,71.5 27.5,68.5 Z"/></g>
<g><path style="opacity:1" fill="#e2a041" d="M 22.5,53.5 C 21.2211,56.3948 20.2211,59.3948 19.5,62.5C 19.8333,63.5 20.1667,64.5 20.5,65.5C 24.2272,61.7668 28.2272,58.4335 32.5,55.5C 31.925,57.4113 30.925,59.078 29.5,60.5C 24.4044,63.3602 21.9044,67.6935 22,73.5C 22.8333,75 24,76.1667 25.5,77C 24.7562,78.0386 23.7562,78.5386 22.5,78.5C 20.0375,81.1271 18.3709,80.4605 17.5,76.5C 17.1667,76.6667 16.8333,76.8333 16.5,77C 17.102,79.0363 18.102,80.8697 19.5,82.5C 18.0247,85.2454 18.6913,87.412 21.5,89C 19.3234,90.1861 18.3234,92.0194 18.5,94.5C 17.5,93.1667 16.5,91.8333 15.5,90.5C 14.5184,87.0381 14.185,83.3714 14.5,79.5C 15.3459,75.9472 16.6792,72.4472 18.5,69C 16.886,63.0184 18.2193,57.8517 22.5,53.5 Z"/></g>
<g><path style="opacity:1" fill="#f5d456" d="M 117.5,60.5 C 118.5,60.5 119.5,60.5 120.5,60.5C 120.48,62.143 121.147,63.4763 122.5,64.5C 122.167,65.1667 121.833,65.8333 121.5,66.5C 124.084,68.0914 125.417,70.4247 125.5,73.5C 124.522,75.777 123.855,78.1103 123.5,80.5C 119.254,80.9089 116.254,83.0756 114.5,87C 116.95,91.7298 120.95,94.0632 126.5,94C 125.748,94.6708 125.414,95.5041 125.5,96.5C 121.865,98.7644 120.032,102.098 120,106.5C 117.382,105.262 114.715,105.262 112,106.5C 110.989,105.944 110.156,105.278 109.5,104.5C 107.938,104.267 106.605,103.6 105.5,102.5C 102.833,101.167 100.167,99.8333 97.5,98.5C 92.8139,96.3855 87.8139,95.5522 82.5,96C 84.139,98.6363 85.4723,101.47 86.5,104.5C 84.8058,105.686 83.1392,105.519 81.5,104C 82.3081,103.692 82.9747,103.192 83.5,102.5C 80.9655,99.5149 78.2988,99.1816 75.5,101.5C 71.482,100.238 67.6487,98.571 64,96.5C 63.0497,97.0223 62.2164,97.689 61.5,98.5C 59.6096,96.4224 57.2762,95.0891 54.5,94.5C 53.0786,91.7521 50.7452,89.2521 47.5,87C 48.3081,86.6924 48.9747,86.1924 49.5,85.5C 47.8333,84.8333 46.1667,84.1667 44.5,83.5C 45.7111,82.2798 45.7111,81.1131 44.5,80C 45.3247,78.3117 46.3247,78.1451 47.5,79.5C 48.4287,78.3112 48.762,76.9778 48.5,75.5C 49.1098,74.609 49.4431,73.609 49.5,72.5C 50.2216,72.0825 50.7216,71.4158 51,70.5C 51.3826,71.056 51.8826,71.3893 52.5,71.5C 52.3284,72.4916 52.6618,73.1583 53.5,73.5C 53.8333,75.8333 55.1667,77.1667 57.5,77.5C 62.312,79.8102 67.312,80.1435 72.5,78.5C 73.0577,79.7899 74.0577,80.6232 75.5,81C 83.9147,83.0831 91.9147,82.0831 99.5,78C 100.535,74.963 100.535,71.7964 99.5,68.5C 103.229,67.9872 106.896,67.1539 110.5,66C 112.324,65.34 113.657,64.1733 114.5,62.5C 115.5,61.8333 116.5,61.1667 117.5,60.5 Z"/></g>
<g><path style="opacity:1" fill="#4e2018" d="M 53.5,73.5 C 55.1667,74.5 56.5,75.8333 57.5,77.5C 55.1667,77.1667 53.8333,75.8333 53.5,73.5 Z"/></g>
<g><path style="opacity:1" fill="#613428" d="M 82.5,71.5 C 82.0269,72.9063 81.0269,73.573 79.5,73.5C 79.9731,72.0937 80.9731,71.427 82.5,71.5 Z"/></g>
<g><path style="opacity:1" fill="#e1a03c" d="M 123.5,80.5 C 129.677,82.1817 136.01,82.8483 142.5,82.5C 142.5,82.8333 142.5,83.1667 142.5,83.5C 138.669,83.6005 134.669,83.7672 130.5,84C 130.273,85.1353 129.94,86.302 129.5,87.5C 128.15,88.9501 126.484,89.6168 124.5,89.5C 124.5,90.5 124.5,91.5 124.5,92.5C 127.085,92.4323 129.418,91.9323 131.5,91C 129.63,93.0396 127.63,94.8729 125.5,96.5C 125.414,95.5041 125.748,94.6708 126.5,94C 120.95,94.0632 116.95,91.7298 114.5,87C 116.254,83.0756 119.254,80.9089 123.5,80.5 Z"/></g>
<g><path style="opacity:1" fill="#f5d458" d="M 185.5,89.5 C 185.5,89.8333 185.5,90.1667 185.5,90.5C 185.567,93.766 183.901,95.266 180.5,95C 180.833,95.3333 181.167,95.6667 181.5,96C 180.809,97.0674 180.309,98.2341 180,99.5C 177.066,102.123 173.9,104.457 170.5,106.5C 169.686,104.234 169.186,101.9 169,99.5C 168.283,100.044 167.783,100.711 167.5,101.5C 167.5,102.167 167.167,102.5 166.5,102.5C 163.711,103.29 160.544,103.957 157,104.5C 153.165,104.11 149.332,103.777 145.5,103.5C 146.129,100.625 146.962,97.9583 148,95.5C 145.579,96.9606 143.079,98.2939 140.5,99.5C 136.942,97.8769 135.776,95.2103 137,91.5C 137.556,93.5951 138.056,93.7618 138.5,92C 138.355,91.228 138.022,90.5613 137.5,90C 139.234,88.2658 141.234,86.9324 143.5,86C 143.116,85.0494 142.783,84.2161 142.5,83.5C 142.5,83.1667 142.5,82.8333 142.5,82.5C 143.791,82.7373 144.791,82.404 145.5,81.5C 149.387,80.094 153.387,79.094 157.5,78.5C 163.197,79.8846 168.863,80.3846 174.5,80C 178.975,82.3138 182.642,85.4804 185.5,89.5 Z"/></g>
<g><path style="opacity:1" fill="#fefefd" d="M 15.5,90.5 C 16.5,91.8333 17.5,93.1667 18.5,94.5C 22.838,102.859 29.5047,108.693 38.5,112C 48.7299,116.391 59.3965,118.891 70.5,119.5C 77.9818,120.492 85.6484,120.825 93.5,120.5C 68.0107,122.27 42.3441,123.603 16.5,124.5C 15.9132,113.176 15.5798,101.843 15.5,90.5 Z"/></g>
<g><path style="opacity:1" fill="#ecba48" d="M 185.5,90.5 C 186.49,96.31 186.823,102.31 186.5,108.5C 185.121,114.199 181.454,116.366 175.5,115C 170.319,111.924 167.652,107.424 167.5,101.5C 167.783,100.711 168.283,100.044 169,99.5C 169.186,101.9 169.686,104.234 170.5,106.5C 173.9,104.457 177.066,102.123 180,99.5C 180.309,98.2341 180.809,97.0674 181.5,96C 181.167,95.6667 180.833,95.3333 180.5,95C 183.901,95.266 185.567,93.766 185.5,90.5 Z"/></g>
<g><path style="opacity:1" fill="#be5927" d="M 185.5,87.5 C 186.222,87.9175 186.722,88.5842 187,89.5C 187.82,96.0137 187.653,102.347 186.5,108.5C 186.823,102.31 186.49,96.31 185.5,90.5C 185.5,90.1667 185.5,89.8333 185.5,89.5C 185.5,88.8333 185.5,88.1667 185.5,87.5 Z"/></g>
<g><path style="opacity:1" fill="#fdfdfc" d="M 144.5,112.5 C 144.916,114.752 146.249,116.252 148.5,117C 151.146,117.497 153.813,117.664 156.5,117.5C 137.015,119.032 117.348,120.032 97.5,120.5C 113.297,118.739 128.464,114.405 143,107.5C 143.198,109.382 143.698,111.048 144.5,112.5 Z"/></g>
<g><path style="opacity:1" fill="#e9b242" d="M 22.5,78.5 C 22.8442,81.5623 23.5109,84.5623 24.5,87.5C 26.1041,89.4458 27.4374,91.6124 28.5,94C 28.3552,94.772 28.0219,95.4387 27.5,96C 31.2281,97.1939 34.2281,99.3605 36.5,102.5C 37.086,102.291 37.586,101.957 38,101.5C 40.7174,104.114 43.8841,106.114 47.5,107.5C 51.9793,108.911 56.3127,110.578 60.5,112.5C 61.1667,112.167 61.8333,111.833 62.5,111.5C 66.3523,113.18 70.0189,115.18 73.5,117.5C 82.1851,117.769 91.1851,117.435 100.5,116.5C 99.7375,117.268 98.7375,117.768 97.5,118C 88.4747,118.284 79.4747,118.784 70.5,119.5C 59.3965,118.891 48.7299,116.391 38.5,112C 29.5047,108.693 22.838,102.859 18.5,94.5C 18.3234,92.0194 19.3234,90.1861 21.5,89C 18.6913,87.412 18.0247,85.2454 19.5,82.5C 18.102,80.8697 17.102,79.0363 16.5,77C 16.8333,76.8333 17.1667,76.6667 17.5,76.5C 18.3709,80.4605 20.0375,81.1271 22.5,78.5 Z"/></g>
<g><path style="opacity:1" fill="#edbd46" d="M 44.5,59.5 C 41.8127,59.3359 39.146,59.5026 36.5,60C 34.5384,62.3132 32.2051,64.1465 29.5,65.5C 28.0937,65.9731 27.427,66.9731 27.5,68.5C 24.8333,71.5 24.8333,74.5 27.5,77.5C 34.5364,81.7898 41.2031,81.1232 47.5,75.5C 47.8333,75.5 48.1667,75.5 48.5,75.5C 48.762,76.9778 48.4287,78.3112 47.5,79.5C 46.3247,78.1451 45.3247,78.3117 44.5,80C 45.7111,81.1131 45.7111,82.2798 44.5,83.5C 46.1667,84.1667 47.8333,84.8333 49.5,85.5C 48.9747,86.1924 48.3081,86.6924 47.5,87C 50.7452,89.2521 53.0786,91.7521 54.5,94.5C 57.2762,95.0891 59.6096,96.4224 61.5,98.5C 62.2164,97.689 63.0497,97.0223 64,96.5C 67.6487,98.571 71.482,100.238 75.5,101.5C 78.2988,99.1816 80.9655,99.5149 83.5,102.5C 82.9747,103.192 82.3081,103.692 81.5,104C 83.1392,105.519 84.8058,105.686 86.5,104.5C 89.3911,107.202 92.7244,109.368 96.5,111C 99.146,111.497 101.813,111.664 104.5,111.5C 107.377,110.096 109.044,107.763 109.5,104.5C 110.156,105.278 110.989,105.944 112,106.5C 114.715,105.262 117.382,105.262 120,106.5C 120.032,102.098 121.865,98.7644 125.5,96.5C 127.63,94.8729 129.63,93.0396 131.5,91C 129.418,91.9323 127.085,92.4323 124.5,92.5C 124.5,91.5 124.5,90.5 124.5,89.5C 126.484,89.6168 128.15,88.9501 129.5,87.5C 129.94,86.302 130.273,85.1353 130.5,84C 134.669,83.7672 138.669,83.6005 142.5,83.5C 142.783,84.2161 143.116,85.0494 143.5,86C 141.234,86.9324 139.234,88.2658 137.5,90C 138.022,90.5613 138.355,91.228 138.5,92C 138.056,93.7618 137.556,93.5951 137,91.5C 135.776,95.2103 136.942,97.8769 140.5,99.5C 143.079,98.2939 145.579,96.9606 148,95.5C 146.962,97.9583 146.129,100.625 145.5,103.5C 149.332,103.777 153.165,104.11 157,104.5C 160.544,103.957 163.711,103.29 166.5,102.5C 164.612,108.565 161.279,113.565 156.5,117.5C 153.813,117.664 151.146,117.497 148.5,117C 146.249,116.252 144.916,114.752 144.5,112.5C 144.5,109.167 144.5,105.833 144.5,102.5C 142.801,102.66 141.134,102.494 139.5,102C 140.696,101.346 140.696,100.846 139.5,100.5C 135.722,106.081 130.389,108.914 123.5,109C 123.957,109.414 124.291,109.914 124.5,110.5C 118.761,111.469 113.261,113.136 108,115.5C 107.493,114.004 107.993,112.837 109.5,112C 107.177,112.306 104.844,112.972 102.5,114C 103.833,114.333 105.167,114.667 106.5,115C 104.482,115.505 102.482,116.005 100.5,116.5C 91.1851,117.435 82.1851,117.769 73.5,117.5C 70.0189,115.18 66.3523,113.18 62.5,111.5C 61.8333,111.833 61.1667,112.167 60.5,112.5C 56.3127,110.578 51.9793,108.911 47.5,107.5C 43.8841,106.114 40.7174,104.114 38,101.5C 37.586,101.957 37.086,102.291 36.5,102.5C 34.2281,99.3605 31.2281,97.1939 27.5,96C 28.0219,95.4387 28.3552,94.772 28.5,94C 27.4374,91.6124 26.1041,89.4458 24.5,87.5C 23.5109,84.5623 22.8442,81.5623 22.5,78.5C 23.7562,78.5386 24.7562,78.0386 25.5,77C 24,76.1667 22.8333,75 22,73.5C 21.9044,67.6935 24.4044,63.3602 29.5,60.5C 32.9586,59.6917 36.4586,59.025 40,58.5C 41.7067,58.5085 43.2067,58.8418 44.5,59.5 Z"/></g>
<g><path style="opacity:1" fill="#bd4838" d="M 105.5,102.5 C 106.605,103.6 107.938,104.267 109.5,104.5C 109.044,107.763 107.377,110.096 104.5,111.5C 103.817,109.824 102.483,109.157 100.5,109.5C 99.5876,108.262 99.4209,106.928 100,105.5C 101.876,104.391 103.709,103.391 105.5,102.5 Z"/></g>
<g><path style="opacity:1" fill="#30191a" d="M 97.5,98.5 C 100.167,99.8333 102.833,101.167 105.5,102.5C 103.709,103.391 101.876,104.391 100,105.5C 99.4209,106.928 99.5876,108.262 100.5,109.5C 94.9622,109.468 92.4622,106.801 93,101.5C 94.2708,100.117 95.7708,99.1175 97.5,98.5 Z"/></g>
<g><path style="opacity:1" fill="#75291d" d="M 97.5,98.5 C 95.7708,99.1175 94.2708,100.117 93,101.5C 92.4622,106.801 94.9622,109.468 100.5,109.5C 102.483,109.157 103.817,109.824 104.5,111.5C 101.813,111.664 99.146,111.497 96.5,111C 92.7244,109.368 89.3911,107.202 86.5,104.5C 85.4723,101.47 84.139,98.6363 82.5,96C 87.8139,95.5522 92.8139,96.3855 97.5,98.5 Z"/></g>
<g><path style="opacity:1" fill="#e19e3d" d="M 144.5,112.5 C 143.698,111.048 143.198,109.382 143,107.5C 128.464,114.405 113.297,118.739 97.5,120.5C 96.1667,120.5 94.8333,120.5 93.5,120.5C 85.6484,120.825 77.9818,120.492 70.5,119.5C 79.4747,118.784 88.4747,118.284 97.5,118C 98.7375,117.768 99.7375,117.268 100.5,116.5C 102.482,116.005 104.482,115.505 106.5,115C 105.167,114.667 103.833,114.333 102.5,114C 104.844,112.972 107.177,112.306 109.5,112C 107.993,112.837 107.493,114.004 108,115.5C 113.261,113.136 118.761,111.469 124.5,110.5C 124.291,109.914 123.957,109.414 123.5,109C 130.389,108.914 135.722,106.081 139.5,100.5C 140.696,100.846 140.696,101.346 139.5,102C 141.134,102.494 142.801,102.66 144.5,102.5C 144.5,105.833 144.5,109.167 144.5,112.5 Z"/></g>
<g><path style="opacity:1" fill="#ededed" d="M 81.5,157.5 C 84.8638,156.789 87.1971,157.956 88.5,161C 86.8876,161.72 85.3876,161.554 84,160.5C 82.4174,162.993 80.9174,162.826 79.5,160C 80.3805,159.292 81.0472,158.458 81.5,157.5 Z"/></g>
<g><path style="opacity:1" fill="#eaeaea" d="M 135.5,159.5 C 137.5,159.5 139.5,159.5 141.5,159.5C 141.5,161.167 141.5,162.833 141.5,164.5C 149.925,163.279 152.259,166.612 148.5,174.5C 144.555,175.491 140.555,175.824 136.5,175.5C 136.431,170.146 136.098,164.813 135.5,159.5 Z"/></g>
<g><path style="opacity:1" fill="#efefef" d="M 20.5,160.5 C 24.81,161.08 29.1434,161.414 33.5,161.5C 33.7093,163.714 32.876,165.381 31,166.5C 29.5349,165.67 28.0349,165.504 26.5,166C 27.5634,167.188 28.8967,167.688 30.5,167.5C 30.5,168.5 30.5,169.5 30.5,170.5C 28.8008,170.34 27.1341,170.506 25.5,171C 27.8098,171.497 30.1432,171.663 32.5,171.5C 32.5,172.833 32.5,174.167 32.5,175.5C 28.5,175.5 24.5,175.5 20.5,175.5C 19.4255,170.52 19.4255,165.52 20.5,160.5 Z"/></g>
<g><path style="opacity:1" fill="#f0f0f0" d="M 42.5,162.5 C 46.7266,163.676 47.3933,165.842 44.5,169C 48.5998,173.22 47.7664,175.053 42,174.5C 39.4383,176.706 36.9383,176.372 34.5,173.5C 35.3128,172.186 36.3128,171.019 37.5,170C 32.2891,167.763 32.2891,165.596 37.5,163.5C 39.9613,166.423 41.6279,166.089 42.5,162.5 Z"/></g>
<g><path style="opacity:1" fill="#efefef" d="M 52.5,159.5 C 56.938,158.425 58.938,160.092 58.5,164.5C 62.0816,163.734 65.5816,163.734 69,164.5C 70.6667,161.833 72.3333,161.833 74,164.5C 74.5946,165.899 74.4279,167.232 73.5,168.5C 72.0333,168.723 70.5333,169.056 69,169.5C 68.5045,171.473 68.3379,173.473 68.5,175.5C 66.8333,175.5 65.1667,175.5 63.5,175.5C 63.4533,172.432 62.9533,169.432 62,166.5C 60.951,168.107 59.451,168.773 57.5,168.5C 57.5,170.833 57.5,173.167 57.5,175.5C 55.8333,175.5 54.1667,175.5 52.5,175.5C 52.5,173.167 52.5,170.833 52.5,168.5C 51.5,168.5 50.5,168.5 49.5,168.5C 49.5,166.833 49.5,165.167 49.5,163.5C 50.5,163.5 51.5,163.5 52.5,163.5C 52.5,162.167 52.5,160.833 52.5,159.5 Z"/></g>
<g><path style="opacity:1" fill="#ececec" d="M 80.5,163.5 C 83.7239,163.203 86.7239,163.87 89.5,165.5C 92.1667,162.833 94.8333,162.833 97.5,165.5C 98.5,164.833 99.5,164.167 100.5,163.5C 102.741,163.881 105.074,164.048 107.5,164C 108.416,164.374 109.25,164.874 110,165.5C 110.498,168.817 110.665,172.15 110.5,175.5C 108.833,175.5 107.167,175.5 105.5,175.5C 105.167,166.167 104.833,166.167 104.5,175.5C 102.833,175.5 101.167,175.5 99.5,175.5C 99.7989,173.396 99.4656,171.396 98.5,169.5C 98.0798,171.326 98.0798,173.326 98.5,175.5C 96.54,176.138 94.7067,176.138 93,175.5C 92.7586,172.711 92.092,170.044 91,167.5C 90.8898,169.848 89.7231,171.348 87.5,172C 88.3567,172.689 89.0233,173.522 89.5,174.5C 80.3586,178.179 76.1919,175.179 77,165.5C 78.3024,164.915 79.469,164.249 80.5,163.5 Z"/></g>
<g><path style="opacity:1" fill="#ededed" d="M 117.5,162.5 C 120.005,162.98 122.338,163.98 124.5,165.5C 125.064,168.656 125.064,171.656 124.5,174.5C 120.297,177.32 116.464,176.987 113,173.5C 112.502,170.518 112.335,167.518 112.5,164.5C 114.553,164.598 116.22,163.931 117.5,162.5 Z"/></g>
<g><path style="opacity:1" fill="#f3f3f3" d="M 153.5,163.5 C 156.518,163.335 159.518,163.502 162.5,164C 163.687,165.019 164.687,166.186 165.5,167.5C 164.167,169.833 164.167,172.167 165.5,174.5C 161.5,175.833 157.5,175.833 153.5,174.5C 152.319,172.802 152.319,171.135 153.5,169.5C 155.776,168.787 158.109,168.287 160.5,168C 157.833,167.667 155.167,167.333 152.5,167C 153.337,165.989 153.67,164.822 153.5,163.5 Z"/></g>
<g><path style="opacity:1" fill="#f1f1f1" d="M 169.5,163.5 C 173.544,162.958 177.211,163.791 180.5,166C 179.624,167.585 178.291,168.585 176.5,169C 179.448,170.01 180.114,171.843 178.5,174.5C 174.472,175.959 170.639,175.626 167,173.5C 166.388,171.763 167.054,170.763 169,170.5C 170.285,170.95 171.452,171.617 172.5,172.5C 172.833,172.167 173.167,171.833 173.5,171.5C 171.5,170.167 169.5,168.833 167.5,167.5C 168.18,166.14 168.847,164.807 169.5,163.5 Z"/></g>
<g><path style="opacity:1" fill="#343434" d="M 82.5,166.5 C 84.9828,166.73 85.4828,167.397 84,168.5C 82.9701,168.164 82.4701,167.497 82.5,166.5 Z"/></g>
<g><path style="opacity:1" fill="#303030" d="M 118.5,166.5 C 121.137,168.154 120.803,168.654 117.5,168C 118.056,167.617 118.389,167.117 118.5,166.5 Z"/></g>
</svg>
