<?xml version="1.0" encoding="UTF-8"?>
<!DOCTYPE svg PUBLIC "-//W3C//DTD SVG 1.1//EN" "http://www.w3.org/Graphics/SVG/1.1/DTD/svg11.dtd">
<svg xmlns="http://www.w3.org/2000/svg" version="1.1" width="200px" height="200px" style="shape-rendering:geometricPrecision; text-rendering:geometricPrecision; image-rendering:optimizeQuality; fill-rule:evenodd; clip-rule:evenodd" xmlns:xlink="http://www.w3.org/1999/xlink">
<g><path style="opacity:0.998" fill="#222222" d="M 8.5,-0.5 C 69.1667,-0.5 129.833,-0.5 190.5,-0.5C 191.987,0.803551 193.654,1.97022 195.5,3C 196.697,5.01533 198.03,6.84866 199.5,8.5C 199.5,69.1667 199.5,129.833 199.5,190.5C 198.196,191.987 197.03,193.654 196,195.5C 193.985,196.697 192.151,198.03 190.5,199.5C 129.833,199.5 69.1667,199.5 8.5,199.5C 7.01307,198.196 5.3464,197.03 3.5,196C 2.30342,193.985 0.970083,192.151 -0.5,190.5C -0.5,129.833 -0.5,69.1667 -0.5,8.5C 0.803551,7.01307 1.97022,5.3464 3,3.5C 5.01533,2.30342 6.84866,0.970083 8.5,-0.5 Z"/></g>
<g><path style="opacity:1" fill="#c6c9fe" d="M 15.5,9.5 C 72.2502,9.00822 128.917,9.50822 185.5,11C 187.049,12.214 188.215,13.714 189,15.5C 189.5,56.832 189.667,98.1653 189.5,139.5C 167.5,139.5 145.5,139.5 123.5,139.5C 123.654,135.975 122.321,133.141 119.5,131C 114.292,129.603 108.959,129.103 103.5,129.5C 103.5,99.8333 103.5,70.1667 103.5,40.5C 117.183,40.1675 130.85,40.5008 144.5,41.5C 138.375,50.9156 132.375,60.4156 126.5,70C 129.073,73.2472 131.573,73.0805 134,69.5C 138.303,62.3657 142.803,55.3657 147.5,48.5C 152.569,55.6253 157.402,62.9586 162,70.5C 163.733,72.6015 165.733,72.9348 168,71.5C 168.52,69.7111 168.187,68.0444 167,66.5C 161.375,58.0851 155.875,49.5851 150.5,41C 156.682,38.612 157.015,35.612 151.5,32C 139.5,31.6667 127.5,31.3333 115.5,31C 113.444,28.5559 110.944,26.7226 108,25.5C 105.239,17.2384 99.7393,14.7384 91.5,18C 89.1064,19.9522 87.6064,22.4522 87,25.5C 84.056,26.7226 81.556,28.5559 79.5,31C 66.7383,31.0381 54.0716,31.7048 41.5,33C 38.3629,37.0949 39.3629,39.7616 44.5,41C 38.0882,50.4116 32.0882,60.0783 26.5,70C 28.2969,73.146 30.4635,73.3127 33,70.5C 37.5981,62.9586 42.4315,55.6253 47.5,48.5C 52.1971,55.3657 56.6971,62.3657 61,69.5C 63.4269,73.0805 65.9269,73.2472 68.5,70C 62.625,60.4156 56.625,50.9156 50.5,41.5C 64.1504,40.5008 77.8171,40.1675 91.5,40.5C 91.5,70.1667 91.5,99.8333 91.5,129.5C 86.8215,129.334 82.1548,129.501 77.5,130C 73.345,131.811 71.345,134.977 71.5,139.5C 50.8333,139.5 30.1667,139.5 9.5,139.5C 9.33334,98.1653 9.50001,56.832 10,15.5C 11.3597,12.9774 13.193,10.9774 15.5,9.5 Z"/></g>
<g><path style="opacity:1" fill="#222222" d="M 24.5,75.5 C 39.837,75.3334 55.1703,75.5001 70.5,76C 70.7303,91.2759 63.0636,99.4426 47.5,100.5C 31.7066,99.3816 24.04,91.0482 24.5,75.5 Z"/></g>
<g><path style="opacity:1" fill="#222222" d="M 124.5,75.5 C 139.837,75.3334 155.17,75.5001 170.5,76C 171.533,88.5647 165.866,96.5647 153.5,100C 136.631,101.908 126.631,94.5751 123.5,78C 123.743,77.0979 124.077,76.2646 124.5,75.5 Z"/></g>
<g><path style="opacity:1" fill="#f5f5f5" d="M 56.5,161.5 C 54.6159,161.288 53.2826,160.288 52.5,158.5C 54.1491,156.35 55.9824,154.35 58,152.5C 59.5,154 61,155.5 62.5,157C 60.2528,158.277 58.2528,159.777 56.5,161.5 Z"/></g>
<g><path style="opacity:1" fill="#f3f3f3" d="M 168.5,152.5 C 170.296,153.793 171.963,155.293 173.5,157C 170.995,158.753 168.329,160.253 165.5,161.5C 164.585,160.672 163.919,159.672 163.5,158.5C 165.19,156.481 166.856,154.481 168.5,152.5 Z"/></g>
<g><path style="opacity:1" fill="#f6f6f6" d="M 126.5,156.5 C 129.455,157.159 132.455,157.492 135.5,157.5C 135.007,159.806 134.674,162.139 134.5,164.5C 131.833,164.5 129.167,164.5 126.5,164.5C 126.5,161.833 126.5,159.167 126.5,156.5 Z"/></g>
<g><path style="opacity:1" fill="#f4f4f4" d="M 31.5,156.5 C 32.5,156.5 33.5,156.5 34.5,156.5C 34.5,161.833 34.5,167.167 34.5,172.5C 38.1359,171.674 41.8026,171.008 45.5,170.5C 45.5,173.833 45.5,177.167 45.5,180.5C 39.5,180.833 33.5,181.167 27.5,181.5C 26.3131,173.525 25.3131,165.525 24.5,157.5C 27.0593,157.802 29.3926,157.468 31.5,156.5 Z"/></g>
<g><path style="opacity:1" fill="#f6f6f6" d="M 114.5,156.5 C 117.482,156.963 120.482,157.296 123.5,157.5C 124.224,165.479 124.558,173.479 124.5,181.5C 122.167,181.5 119.833,181.5 117.5,181.5C 116.573,173.158 115.573,164.825 114.5,156.5 Z"/></g>
<g><path style="opacity:1" fill="#f7f7f7" d="M 143.5,157.5 C 146.206,157.575 148.873,157.908 151.5,158.5C 151.5,160.167 151.5,161.833 151.5,163.5C 152.833,163.5 154.167,163.5 155.5,163.5C 155.5,165.833 155.5,168.167 155.5,170.5C 153.833,170.5 152.167,170.5 150.5,170.5C 150.5,174.167 150.5,177.833 150.5,181.5C 147.794,181.425 145.127,181.092 142.5,180.5C 142.5,176.833 142.5,173.167 142.5,169.5C 141.167,169.5 139.833,169.5 138.5,169.5C 138.192,167.076 138.526,164.743 139.5,162.5C 140.736,163.246 142.07,163.579 143.5,163.5C 143.5,161.5 143.5,159.5 143.5,157.5 Z"/></g>
<g><path style="opacity:1" fill="#f4f4f4" d="M 97.5,169.5 C 95.8008,169.66 94.1341,169.494 92.5,169C 93.6687,166.993 94.3354,164.827 94.5,162.5C 101.591,161.768 107.591,163.768 112.5,168.5C 109.878,172.368 109.878,176.202 112.5,180C 110.966,180.923 109.299,181.423 107.5,181.5C 102.875,180.812 98.2086,180.812 93.5,181.5C 93.2437,179.063 92.5771,176.729 91.5,174.5C 93.1619,172.348 95.1619,170.682 97.5,169.5 Z"/></g>
<g><path style="opacity:1" fill="#f3f3f3" d="M 167.5,161.5 C 171.264,162.881 174.931,164.547 178.5,166.5C 178.949,169.044 178.949,171.71 178.5,174.5C 174.486,174.334 170.486,174.501 166.5,175C 168.678,177.879 171.178,178.045 174,175.5C 175.52,176.697 176.687,178.197 177.5,180C 174.083,181.109 170.583,181.942 167,182.5C 163.186,180.671 160.019,178.171 157.5,175C 157.936,171.782 158.602,168.616 159.5,165.5C 162.358,164.339 165.025,163.006 167.5,161.5 Z"/></g>
<g><path style="opacity:1" fill="#f4f4f4" d="M 56.5,161.5 C 60.2226,162.858 63.8892,164.525 67.5,166.5C 68.2811,167.729 68.7811,169.062 69,170.5C 70.87,168.595 72.37,166.428 73.5,164C 75.9595,163.761 78.2928,164.261 80.5,165.5C 82.8002,163.798 85.4669,163.132 88.5,163.5C 89.5896,170.335 90.0896,177.335 90,184.5C 87.1651,185.916 84.4985,187.583 82,189.5C 79.1836,188.338 76.3503,187.171 73.5,186C 74.7256,184.365 76.059,182.865 77.5,181.5C 81.0241,184.728 83.0241,184.061 83.5,179.5C 80.8067,179.572 78.1401,179.905 75.5,180.5C 74.5,180.167 73.5,179.833 72.5,179.5C 71.2533,176.671 69.7533,174.005 68,171.5C 67.5172,172.448 67.3505,173.448 67.5,174.5C 63.4862,174.334 59.4862,174.501 55.5,175C 56.354,176.022 57.354,176.855 58.5,177.5C 63.633,174.128 65.9664,175.294 65.5,181C 62.2942,181.296 59.1275,181.796 56,182.5C 53.1816,181.09 50.5149,179.423 48,177.5C 47.2327,173.406 47.566,169.406 49,165.5C 51.7685,164.534 54.2685,163.201 56.5,161.5 Z"/></g>
<g><path style="opacity:1" fill="#a1a1a1" d="M 88.5,163.5 C 85.4669,163.132 82.8002,163.798 80.5,165.5C 80.5,164.5 80.5,163.5 80.5,162.5C 83.3854,162.194 86.0521,162.527 88.5,163.5 Z"/></g>
<g><path style="opacity:1" fill="#ececec" d="M 125.5,165.5 C 128.545,165.508 131.545,165.841 134.5,166.5C 134.249,171.507 133.916,176.507 133.5,181.5C 130.833,181.5 128.167,181.5 125.5,181.5C 125.5,176.167 125.5,170.833 125.5,165.5 Z"/></g>
<g><path style="opacity:1" fill="#303030" d="M 167.5,167.5 C 172.662,169.729 172.329,170.395 166.5,169.5C 166.863,168.817 167.196,168.15 167.5,167.5 Z"/></g>
<g><path style="opacity:1" fill="#3b3b3b" d="M 56.5,167.5 C 58.0898,167.628 59.4231,168.295 60.5,169.5C 58.8333,170.833 57.1667,170.833 55.5,169.5C 55.8627,168.817 56.1961,168.15 56.5,167.5 Z"/></g>
<g><path style="opacity:1" fill="#363636" d="M 97.5,169.5 C 99.3635,168.207 101.364,168.207 103.5,169.5C 101.599,170.231 99.5988,170.231 97.5,169.5 Z"/></g>
<g><path style="opacity:1" fill="#292929" d="M 77.5,171.5 C 78.8333,171.5 80.1667,171.5 81.5,171.5C 80.3037,176.757 78.9704,176.757 77.5,171.5 Z"/></g>
<g><path style="opacity:1" fill="#252525" d="M 99.5,174.5 C 102.957,174.667 103.29,175.667 100.5,177.5C 99.6143,176.675 99.281,175.675 99.5,174.5 Z"/></g>
</svg>
